<mxfile host="app.diagrams.net" modified="2023-09-04T12:04:17.896Z" agent="Mozilla/5.0 (X11; Linux x86_64) AppleWebKit/537.36 (KHTML, like Gecko) Chrome/115.0.0.0 Safari/537.36" etag="1WHlTcyqnpQxTQJy_J80" version="21.6.8" type="device" pages="5">
  <diagram name="Page-1" id="gHxCU2T5FhrWf0FPwdlm">
    <mxGraphModel dx="1980" dy="486" grid="1" gridSize="10" guides="1" tooltips="1" connect="1" arrows="1" fold="1" page="1" pageScale="1" pageWidth="1100" pageHeight="850" math="0" shadow="0">
      <root>
        <mxCell id="0" />
        <mxCell id="1" parent="0" />
        <mxCell id="PW9WcP-tDACB_sWWF6th-1" value="" style="rounded=0;whiteSpace=wrap;html=1;fontFamily=Ubuntu;fontSource=https%3A%2F%2Ffonts.googleapis.com%2Fcss%3Ffamily%3DUbuntu;fontSize=14;movable=0;resizable=0;rotatable=0;deletable=0;editable=0;locked=1;connectable=0;" vertex="1" parent="1">
          <mxGeometry x="40" y="40" width="160" height="560" as="geometry" />
        </mxCell>
        <mxCell id="PW9WcP-tDACB_sWWF6th-2" value="" style="rounded=0;whiteSpace=wrap;html=1;fontFamily=Ubuntu;fontSource=https%3A%2F%2Ffonts.googleapis.com%2Fcss%3Ffamily%3DUbuntu;fontSize=14;movable=0;resizable=0;rotatable=0;deletable=0;editable=0;locked=1;connectable=0;" vertex="1" parent="1">
          <mxGeometry x="200" y="40" width="560" height="280" as="geometry" />
        </mxCell>
        <mxCell id="PW9WcP-tDACB_sWWF6th-3" value="" style="rounded=0;whiteSpace=wrap;html=1;fontFamily=Ubuntu;fontSource=https%3A%2F%2Ffonts.googleapis.com%2Fcss%3Ffamily%3DUbuntu;fontSize=14;movable=0;resizable=0;rotatable=0;deletable=0;editable=0;locked=1;connectable=0;" vertex="1" parent="1">
          <mxGeometry x="200" y="320" width="560" height="280" as="geometry" />
        </mxCell>
        <mxCell id="PW9WcP-tDACB_sWWF6th-4" value="Demo6.class" style="rounded=0;whiteSpace=wrap;html=1;fontFamily=Ubuntu;fontSource=https%3A%2F%2Ffonts.googleapis.com%2Fcss%3Ffamily%3DUbuntu;fontSize=14;movable=0;resizable=0;rotatable=0;deletable=0;editable=0;locked=1;connectable=0;" vertex="1" parent="1">
          <mxGeometry x="780" y="500" width="100" height="100" as="geometry" />
        </mxCell>
        <mxCell id="PW9WcP-tDACB_sWWF6th-5" value="Student.class" style="rounded=0;whiteSpace=wrap;html=1;fontFamily=Ubuntu;fontSource=https%3A%2F%2Ffonts.googleapis.com%2Fcss%3Ffamily%3DUbuntu;fontSize=14;movable=0;resizable=0;rotatable=0;deletable=0;editable=0;locked=1;connectable=0;" vertex="1" parent="1">
          <mxGeometry x="800" y="375" width="100" height="100" as="geometry" />
        </mxCell>
        <mxCell id="PW9WcP-tDACB_sWWF6th-6" value="Application Class Loader" style="shape=umlActor;verticalLabelPosition=bottom;verticalAlign=top;html=1;outlineConnect=0;fontFamily=Ubuntu;fontSource=https%3A%2F%2Ffonts.googleapis.com%2Fcss%3Ffamily%3DUbuntu;align=left;movable=0;resizable=0;rotatable=0;deletable=0;editable=0;locked=1;connectable=0;" vertex="1" parent="1">
          <mxGeometry x="815" y="40" width="30" height="60" as="geometry" />
        </mxCell>
        <mxCell id="PW9WcP-tDACB_sWWF6th-8" value="STACK" style="text;html=1;strokeColor=none;fillColor=none;align=center;verticalAlign=middle;whiteSpace=wrap;rounded=0;fontFamily=Ubuntu;fontSource=https%3A%2F%2Ffonts.googleapis.com%2Fcss%3Ffamily%3DUbuntu;fontSize=26;fontColor=#CCCCCC;movable=0;resizable=0;rotatable=0;deletable=0;editable=0;locked=1;connectable=0;" vertex="1" parent="1">
          <mxGeometry x="60" y="300" width="120" height="50" as="geometry" />
        </mxCell>
        <mxCell id="PW9WcP-tDACB_sWWF6th-9" value="METHOD AREA" style="text;html=1;strokeColor=none;fillColor=none;align=center;verticalAlign=middle;whiteSpace=wrap;rounded=0;fontFamily=Ubuntu;fontSource=https%3A%2F%2Ffonts.googleapis.com%2Fcss%3Ffamily%3DUbuntu;fontSize=26;fontColor=#CCCCCC;movable=0;resizable=0;rotatable=0;deletable=0;editable=0;locked=1;connectable=0;" vertex="1" parent="1">
          <mxGeometry x="420" y="140" width="120" height="50" as="geometry" />
        </mxCell>
        <mxCell id="PW9WcP-tDACB_sWWF6th-10" value="HEAP" style="text;html=1;strokeColor=none;fillColor=none;align=center;verticalAlign=middle;whiteSpace=wrap;rounded=0;fontFamily=Ubuntu;fontSource=https%3A%2F%2Ffonts.googleapis.com%2Fcss%3Ffamily%3DUbuntu;fontSize=26;fontColor=#CCCCCC;movable=0;resizable=0;rotatable=0;deletable=0;editable=0;locked=1;connectable=0;" vertex="1" parent="1">
          <mxGeometry x="420" y="425" width="120" height="50" as="geometry" />
        </mxCell>
        <mxCell id="PW9WcP-tDACB_sWWF6th-11" value="" style="rounded=0;whiteSpace=wrap;html=1;fontFamily=Ubuntu;fontSource=https%3A%2F%2Ffonts.googleapis.com%2Fcss%3Ffamily%3DUbuntu;fontSize=14;movable=1;resizable=1;rotatable=1;deletable=1;editable=1;locked=0;connectable=1;" vertex="1" parent="1">
          <mxGeometry x="600" y="80" width="140" height="200" as="geometry" />
        </mxCell>
        <mxCell id="PW9WcP-tDACB_sWWF6th-12" value="0xAF10" style="text;html=1;strokeColor=#6c8ebf;fillColor=#dae8fc;align=center;verticalAlign=middle;whiteSpace=wrap;rounded=0;fontFamily=Ubuntu;fontSource=https%3A%2F%2Ffonts.googleapis.com%2Fcss%3Ffamily%3DUbuntu;fontSize=14;" vertex="1" parent="1">
          <mxGeometry x="600" y="50" width="60" height="30" as="geometry" />
        </mxCell>
        <mxCell id="PW9WcP-tDACB_sWWF6th-13" value="Demo6 Class Object" style="text;html=1;strokeColor=#6c8ebf;fillColor=#dae8fc;align=center;verticalAlign=middle;whiteSpace=wrap;rounded=0;fontFamily=Ubuntu;fontSource=https%3A%2F%2Ffonts.googleapis.com%2Fcss%3Ffamily%3DUbuntu;fontSize=14;" vertex="1" parent="1">
          <mxGeometry x="600" y="280" width="140" height="30" as="geometry" />
        </mxCell>
        <mxCell id="PW9WcP-tDACB_sWWF6th-14" value="Demo6()" style="ellipse;whiteSpace=wrap;html=1;fontFamily=Ubuntu;fontSource=https%3A%2F%2Ffonts.googleapis.com%2Fcss%3Ffamily%3DUbuntu;fontSize=14;fillColor=#f8cecc;strokeColor=#b85450;fillStyle=dots;" vertex="1" parent="1">
          <mxGeometry x="610" y="90" width="120" height="80" as="geometry" />
        </mxCell>
        <mxCell id="PW9WcP-tDACB_sWWF6th-16" value="psvm()" style="ellipse;whiteSpace=wrap;html=1;fontFamily=Ubuntu;fontSource=https%3A%2F%2Ffonts.googleapis.com%2Fcss%3Ffamily%3DUbuntu;fontSize=14;" vertex="1" parent="1">
          <mxGeometry x="610" y="180" width="120" height="80" as="geometry" />
        </mxCell>
        <mxCell id="PW9WcP-tDACB_sWWF6th-17" value="" style="rounded=0;whiteSpace=wrap;html=1;fillColor=#d5e8d4;strokeColor=#82b366;strokeWidth=6;" vertex="1" parent="1">
          <mxGeometry x="40" y="410" width="160" height="190" as="geometry" />
        </mxCell>
        <mxCell id="PW9WcP-tDACB_sWWF6th-18" value="Demo6 (0xAF10). main()" style="text;html=1;strokeColor=none;fillColor=none;align=center;verticalAlign=middle;whiteSpace=wrap;rounded=0;fontFamily=Ubuntu;fontSource=https%3A%2F%2Ffonts.googleapis.com%2Fcss%3Ffamily%3DUbuntu;fontSize=16;" vertex="1" parent="1">
          <mxGeometry x="-160" y="520" width="190" height="30" as="geometry" />
        </mxCell>
        <mxCell id="PW9WcP-tDACB_sWWF6th-21" style="edgeStyle=orthogonalEdgeStyle;rounded=0;orthogonalLoop=1;jettySize=auto;html=1;entryX=0;entryY=0.25;entryDx=0;entryDy=0;dashed=1;" edge="1" parent="1" source="PW9WcP-tDACB_sWWF6th-20" target="PW9WcP-tDACB_sWWF6th-12">
          <mxGeometry relative="1" as="geometry">
            <Array as="points">
              <mxPoint x="210" y="428" />
              <mxPoint x="210" y="58" />
            </Array>
          </mxGeometry>
        </mxCell>
        <mxCell id="PW9WcP-tDACB_sWWF6th-20" value="RCP = 0xAF10" style="rounded=0;whiteSpace=wrap;html=1;fontFamily=Ubuntu;fontSource=https%3A%2F%2Ffonts.googleapis.com%2Fcss%3Ffamily%3DUbuntu;fontSize=16;" vertex="1" parent="1">
          <mxGeometry x="40" y="410" width="160" height="35" as="geometry" />
        </mxCell>
        <mxCell id="PW9WcP-tDACB_sWWF6th-25" style="edgeStyle=orthogonalEdgeStyle;rounded=0;orthogonalLoop=1;jettySize=auto;html=1;dashed=1;" edge="1" parent="1" source="PW9WcP-tDACB_sWWF6th-22" target="PW9WcP-tDACB_sWWF6th-23">
          <mxGeometry relative="1" as="geometry" />
        </mxCell>
        <mxCell id="PW9WcP-tDACB_sWWF6th-22" value="String[] args = 0xAF11" style="rounded=0;whiteSpace=wrap;html=1;fontFamily=Ubuntu;fontSource=https%3A%2F%2Ffonts.googleapis.com%2Fcss%3Ffamily%3DUbuntu;fontSize=16;" vertex="1" parent="1">
          <mxGeometry x="40" y="445" width="160" height="45" as="geometry" />
        </mxCell>
        <mxCell id="PW9WcP-tDACB_sWWF6th-23" value="0xAF11" style="text;html=1;strokeColor=#6c8ebf;fillColor=#dae8fc;align=center;verticalAlign=middle;whiteSpace=wrap;rounded=0;fontFamily=Ubuntu;fontSource=https%3A%2F%2Ffonts.googleapis.com%2Fcss%3Ffamily%3DUbuntu;fontSize=14;" vertex="1" parent="1">
          <mxGeometry x="210" y="520" width="60" height="30" as="geometry" />
        </mxCell>
        <mxCell id="PW9WcP-tDACB_sWWF6th-24" value="" style="rounded=0;whiteSpace=wrap;html=1;" vertex="1" parent="1">
          <mxGeometry x="210" y="550" width="10" height="20" as="geometry" />
        </mxCell>
        <mxCell id="PW9WcP-tDACB_sWWF6th-26" value="Student s1" style="rounded=0;whiteSpace=wrap;html=1;fontFamily=Ubuntu;fontSource=https%3A%2F%2Ffonts.googleapis.com%2Fcss%3Ffamily%3DUbuntu;fontSize=16;" vertex="1" parent="1">
          <mxGeometry x="40" y="490" width="160" height="35" as="geometry" />
        </mxCell>
        <mxCell id="PW9WcP-tDACB_sWWF6th-27" value="Student s2" style="rounded=0;whiteSpace=wrap;html=1;fontFamily=Ubuntu;fontSource=https%3A%2F%2Ffonts.googleapis.com%2Fcss%3Ffamily%3DUbuntu;fontSize=16;" vertex="1" parent="1">
          <mxGeometry x="40" y="525" width="160" height="35" as="geometry" />
        </mxCell>
        <mxCell id="PW9WcP-tDACB_sWWF6th-28" value="Student s3" style="rounded=0;whiteSpace=wrap;html=1;fontFamily=Ubuntu;fontSource=https%3A%2F%2Ffonts.googleapis.com%2Fcss%3Ffamily%3DUbuntu;fontSize=16;" vertex="1" parent="1">
          <mxGeometry x="40" y="560" width="160" height="35" as="geometry" />
        </mxCell>
      </root>
    </mxGraphModel>
  </diagram>
  <diagram name="Page-2" id="SOZdUE73DIJLef9Licsz">
    <mxGraphModel dx="1980" dy="595" grid="1" gridSize="10" guides="1" tooltips="1" connect="1" arrows="1" fold="1" page="1" pageScale="1" pageWidth="1100" pageHeight="850" math="0" shadow="0">
      <root>
        <mxCell id="N8QkOD5QlJYqmFSD2Ovq-0" />
        <mxCell id="N8QkOD5QlJYqmFSD2Ovq-1" parent="N8QkOD5QlJYqmFSD2Ovq-0" />
        <mxCell id="N8QkOD5QlJYqmFSD2Ovq-2" value="" style="rounded=0;whiteSpace=wrap;html=1;fontFamily=Ubuntu;fontSource=https%3A%2F%2Ffonts.googleapis.com%2Fcss%3Ffamily%3DUbuntu;fontSize=14;movable=0;resizable=0;rotatable=0;deletable=0;editable=0;locked=1;connectable=0;" vertex="1" parent="N8QkOD5QlJYqmFSD2Ovq-1">
          <mxGeometry x="40" y="40" width="160" height="560" as="geometry" />
        </mxCell>
        <mxCell id="N8QkOD5QlJYqmFSD2Ovq-3" value="" style="rounded=0;whiteSpace=wrap;html=1;fontFamily=Ubuntu;fontSource=https%3A%2F%2Ffonts.googleapis.com%2Fcss%3Ffamily%3DUbuntu;fontSize=14;movable=0;resizable=0;rotatable=0;deletable=0;editable=0;locked=1;connectable=0;" vertex="1" parent="N8QkOD5QlJYqmFSD2Ovq-1">
          <mxGeometry x="200" y="40" width="560" height="280" as="geometry" />
        </mxCell>
        <mxCell id="N8QkOD5QlJYqmFSD2Ovq-4" value="" style="rounded=0;whiteSpace=wrap;html=1;fontFamily=Ubuntu;fontSource=https%3A%2F%2Ffonts.googleapis.com%2Fcss%3Ffamily%3DUbuntu;fontSize=14;movable=0;resizable=0;rotatable=0;deletable=0;editable=0;locked=1;connectable=0;" vertex="1" parent="N8QkOD5QlJYqmFSD2Ovq-1">
          <mxGeometry x="200" y="320" width="560" height="280" as="geometry" />
        </mxCell>
        <mxCell id="N8QkOD5QlJYqmFSD2Ovq-5" value="Demo6.class" style="rounded=0;whiteSpace=wrap;html=1;fontFamily=Ubuntu;fontSource=https%3A%2F%2Ffonts.googleapis.com%2Fcss%3Ffamily%3DUbuntu;fontSize=14;movable=0;resizable=0;rotatable=0;deletable=0;editable=0;locked=1;connectable=0;" vertex="1" parent="N8QkOD5QlJYqmFSD2Ovq-1">
          <mxGeometry x="780" y="500" width="100" height="100" as="geometry" />
        </mxCell>
        <mxCell id="N8QkOD5QlJYqmFSD2Ovq-6" value="Student.class" style="rounded=0;whiteSpace=wrap;html=1;fontFamily=Ubuntu;fontSource=https%3A%2F%2Ffonts.googleapis.com%2Fcss%3Ffamily%3DUbuntu;fontSize=14;movable=0;resizable=0;rotatable=0;deletable=0;editable=0;locked=1;connectable=0;" vertex="1" parent="N8QkOD5QlJYqmFSD2Ovq-1">
          <mxGeometry x="800" y="375" width="100" height="100" as="geometry" />
        </mxCell>
        <mxCell id="N8QkOD5QlJYqmFSD2Ovq-7" value="Application Class Loader" style="shape=umlActor;verticalLabelPosition=bottom;verticalAlign=top;html=1;outlineConnect=0;fontFamily=Ubuntu;fontSource=https%3A%2F%2Ffonts.googleapis.com%2Fcss%3Ffamily%3DUbuntu;align=left;movable=0;resizable=0;rotatable=0;deletable=0;editable=0;locked=1;connectable=0;" vertex="1" parent="N8QkOD5QlJYqmFSD2Ovq-1">
          <mxGeometry x="815" y="40" width="30" height="60" as="geometry" />
        </mxCell>
        <mxCell id="N8QkOD5QlJYqmFSD2Ovq-8" value="STACK" style="text;html=1;strokeColor=none;fillColor=none;align=center;verticalAlign=middle;whiteSpace=wrap;rounded=0;fontFamily=Ubuntu;fontSource=https%3A%2F%2Ffonts.googleapis.com%2Fcss%3Ffamily%3DUbuntu;fontSize=26;fontColor=#CCCCCC;movable=0;resizable=0;rotatable=0;deletable=0;editable=0;locked=1;connectable=0;" vertex="1" parent="N8QkOD5QlJYqmFSD2Ovq-1">
          <mxGeometry x="60" y="300" width="120" height="50" as="geometry" />
        </mxCell>
        <mxCell id="N8QkOD5QlJYqmFSD2Ovq-9" value="METHOD AREA" style="text;html=1;strokeColor=none;fillColor=none;align=center;verticalAlign=middle;whiteSpace=wrap;rounded=0;fontFamily=Ubuntu;fontSource=https%3A%2F%2Ffonts.googleapis.com%2Fcss%3Ffamily%3DUbuntu;fontSize=26;fontColor=#CCCCCC;movable=0;resizable=0;rotatable=0;deletable=0;editable=0;locked=1;connectable=0;" vertex="1" parent="N8QkOD5QlJYqmFSD2Ovq-1">
          <mxGeometry x="420" y="140" width="120" height="50" as="geometry" />
        </mxCell>
        <mxCell id="N8QkOD5QlJYqmFSD2Ovq-10" value="HEAP" style="text;html=1;strokeColor=none;fillColor=none;align=center;verticalAlign=middle;whiteSpace=wrap;rounded=0;fontFamily=Ubuntu;fontSource=https%3A%2F%2Ffonts.googleapis.com%2Fcss%3Ffamily%3DUbuntu;fontSize=26;fontColor=#CCCCCC;movable=0;resizable=0;rotatable=0;deletable=0;editable=0;locked=1;connectable=0;" vertex="1" parent="N8QkOD5QlJYqmFSD2Ovq-1">
          <mxGeometry x="420" y="425" width="120" height="50" as="geometry" />
        </mxCell>
        <mxCell id="N8QkOD5QlJYqmFSD2Ovq-11" value="" style="rounded=0;whiteSpace=wrap;html=1;fontFamily=Ubuntu;fontSource=https%3A%2F%2Ffonts.googleapis.com%2Fcss%3Ffamily%3DUbuntu;fontSize=14;movable=1;resizable=1;rotatable=1;deletable=1;editable=1;locked=0;connectable=1;" vertex="1" parent="N8QkOD5QlJYqmFSD2Ovq-1">
          <mxGeometry x="600" y="80" width="140" height="200" as="geometry" />
        </mxCell>
        <mxCell id="N8QkOD5QlJYqmFSD2Ovq-12" value="0xAF10" style="text;html=1;strokeColor=#6c8ebf;fillColor=#dae8fc;align=center;verticalAlign=middle;whiteSpace=wrap;rounded=0;fontFamily=Ubuntu;fontSource=https%3A%2F%2Ffonts.googleapis.com%2Fcss%3Ffamily%3DUbuntu;fontSize=14;" vertex="1" parent="N8QkOD5QlJYqmFSD2Ovq-1">
          <mxGeometry x="600" y="50" width="60" height="30" as="geometry" />
        </mxCell>
        <mxCell id="N8QkOD5QlJYqmFSD2Ovq-13" value="Demo6 Class Object" style="text;html=1;strokeColor=#6c8ebf;fillColor=#dae8fc;align=center;verticalAlign=middle;whiteSpace=wrap;rounded=0;fontFamily=Ubuntu;fontSource=https%3A%2F%2Ffonts.googleapis.com%2Fcss%3Ffamily%3DUbuntu;fontSize=14;" vertex="1" parent="N8QkOD5QlJYqmFSD2Ovq-1">
          <mxGeometry x="600" y="280" width="140" height="30" as="geometry" />
        </mxCell>
        <mxCell id="N8QkOD5QlJYqmFSD2Ovq-14" value="Demo6()" style="ellipse;whiteSpace=wrap;html=1;fontFamily=Ubuntu;fontSource=https%3A%2F%2Ffonts.googleapis.com%2Fcss%3Ffamily%3DUbuntu;fontSize=14;fillColor=#f8cecc;strokeColor=#b85450;fillStyle=dots;" vertex="1" parent="N8QkOD5QlJYqmFSD2Ovq-1">
          <mxGeometry x="610" y="90" width="120" height="80" as="geometry" />
        </mxCell>
        <mxCell id="N8QkOD5QlJYqmFSD2Ovq-15" value="psvm()" style="ellipse;whiteSpace=wrap;html=1;fontFamily=Ubuntu;fontSource=https%3A%2F%2Ffonts.googleapis.com%2Fcss%3Ffamily%3DUbuntu;fontSize=14;" vertex="1" parent="N8QkOD5QlJYqmFSD2Ovq-1">
          <mxGeometry x="610" y="180" width="120" height="80" as="geometry" />
        </mxCell>
        <mxCell id="N8QkOD5QlJYqmFSD2Ovq-16" value="" style="rounded=0;whiteSpace=wrap;html=1;fillColor=#d5e8d4;strokeColor=#82b366;strokeWidth=6;" vertex="1" parent="N8QkOD5QlJYqmFSD2Ovq-1">
          <mxGeometry x="40" y="410" width="160" height="190" as="geometry" />
        </mxCell>
        <mxCell id="N8QkOD5QlJYqmFSD2Ovq-17" value="Demo6 (0xAF10). main()" style="text;html=1;strokeColor=none;fillColor=none;align=center;verticalAlign=middle;whiteSpace=wrap;rounded=0;fontFamily=Ubuntu;fontSource=https%3A%2F%2Ffonts.googleapis.com%2Fcss%3Ffamily%3DUbuntu;fontSize=16;" vertex="1" parent="N8QkOD5QlJYqmFSD2Ovq-1">
          <mxGeometry x="-160" y="520" width="190" height="30" as="geometry" />
        </mxCell>
        <mxCell id="N8QkOD5QlJYqmFSD2Ovq-18" style="edgeStyle=orthogonalEdgeStyle;rounded=0;orthogonalLoop=1;jettySize=auto;html=1;entryX=0;entryY=0.25;entryDx=0;entryDy=0;dashed=1;" edge="1" parent="N8QkOD5QlJYqmFSD2Ovq-1" source="N8QkOD5QlJYqmFSD2Ovq-19" target="N8QkOD5QlJYqmFSD2Ovq-12">
          <mxGeometry relative="1" as="geometry">
            <Array as="points">
              <mxPoint x="210" y="428" />
              <mxPoint x="210" y="58" />
            </Array>
          </mxGeometry>
        </mxCell>
        <mxCell id="N8QkOD5QlJYqmFSD2Ovq-19" value="RCP = 0xAF10" style="rounded=0;whiteSpace=wrap;html=1;fontFamily=Ubuntu;fontSource=https%3A%2F%2Ffonts.googleapis.com%2Fcss%3Ffamily%3DUbuntu;fontSize=16;" vertex="1" parent="N8QkOD5QlJYqmFSD2Ovq-1">
          <mxGeometry x="40" y="410" width="160" height="35" as="geometry" />
        </mxCell>
        <mxCell id="N8QkOD5QlJYqmFSD2Ovq-20" style="edgeStyle=orthogonalEdgeStyle;rounded=0;orthogonalLoop=1;jettySize=auto;html=1;dashed=1;" edge="1" parent="N8QkOD5QlJYqmFSD2Ovq-1" source="N8QkOD5QlJYqmFSD2Ovq-21" target="N8QkOD5QlJYqmFSD2Ovq-22">
          <mxGeometry relative="1" as="geometry" />
        </mxCell>
        <mxCell id="N8QkOD5QlJYqmFSD2Ovq-21" value="String[] args = 0xAF11" style="rounded=0;whiteSpace=wrap;html=1;fontFamily=Ubuntu;fontSource=https%3A%2F%2Ffonts.googleapis.com%2Fcss%3Ffamily%3DUbuntu;fontSize=16;" vertex="1" parent="N8QkOD5QlJYqmFSD2Ovq-1">
          <mxGeometry x="40" y="445" width="160" height="45" as="geometry" />
        </mxCell>
        <mxCell id="N8QkOD5QlJYqmFSD2Ovq-22" value="0xAF11" style="text;html=1;strokeColor=#6c8ebf;fillColor=#dae8fc;align=center;verticalAlign=middle;whiteSpace=wrap;rounded=0;fontFamily=Ubuntu;fontSource=https%3A%2F%2Ffonts.googleapis.com%2Fcss%3Ffamily%3DUbuntu;fontSize=14;" vertex="1" parent="N8QkOD5QlJYqmFSD2Ovq-1">
          <mxGeometry x="210" y="520" width="60" height="30" as="geometry" />
        </mxCell>
        <mxCell id="N8QkOD5QlJYqmFSD2Ovq-23" value="" style="rounded=0;whiteSpace=wrap;html=1;" vertex="1" parent="N8QkOD5QlJYqmFSD2Ovq-1">
          <mxGeometry x="210" y="550" width="10" height="20" as="geometry" />
        </mxCell>
        <mxCell id="N8QkOD5QlJYqmFSD2Ovq-24" value="Student s1" style="rounded=0;whiteSpace=wrap;html=1;fontFamily=Ubuntu;fontSource=https%3A%2F%2Ffonts.googleapis.com%2Fcss%3Ffamily%3DUbuntu;fontSize=16;" vertex="1" parent="N8QkOD5QlJYqmFSD2Ovq-1">
          <mxGeometry x="40" y="490" width="160" height="35" as="geometry" />
        </mxCell>
        <mxCell id="N8QkOD5QlJYqmFSD2Ovq-25" value="Student s2" style="rounded=0;whiteSpace=wrap;html=1;fontFamily=Ubuntu;fontSource=https%3A%2F%2Ffonts.googleapis.com%2Fcss%3Ffamily%3DUbuntu;fontSize=16;" vertex="1" parent="N8QkOD5QlJYqmFSD2Ovq-1">
          <mxGeometry x="40" y="525" width="160" height="35" as="geometry" />
        </mxCell>
        <mxCell id="N8QkOD5QlJYqmFSD2Ovq-26" value="Student s3" style="rounded=0;whiteSpace=wrap;html=1;fontFamily=Ubuntu;fontSource=https%3A%2F%2Ffonts.googleapis.com%2Fcss%3Ffamily%3DUbuntu;fontSize=16;" vertex="1" parent="N8QkOD5QlJYqmFSD2Ovq-1">
          <mxGeometry x="40" y="560" width="160" height="35" as="geometry" />
        </mxCell>
        <mxCell id="jWwXobSsDPb9BA1wDoYC-0" value="" style="rounded=0;whiteSpace=wrap;html=1;fontFamily=Ubuntu;fontSource=https%3A%2F%2Ffonts.googleapis.com%2Fcss%3Ffamily%3DUbuntu;fontSize=14;movable=1;resizable=1;rotatable=1;deletable=1;editable=1;locked=0;connectable=1;" vertex="1" parent="N8QkOD5QlJYqmFSD2Ovq-1">
          <mxGeometry x="420" y="80" width="140" height="200" as="geometry" />
        </mxCell>
        <mxCell id="jWwXobSsDPb9BA1wDoYC-1" value="0xAF12" style="text;html=1;strokeColor=#6c8ebf;fillColor=#dae8fc;align=center;verticalAlign=middle;whiteSpace=wrap;rounded=0;fontFamily=Ubuntu;fontSource=https%3A%2F%2Ffonts.googleapis.com%2Fcss%3Ffamily%3DUbuntu;fontSize=14;" vertex="1" parent="N8QkOD5QlJYqmFSD2Ovq-1">
          <mxGeometry x="420" y="50" width="60" height="30" as="geometry" />
        </mxCell>
        <mxCell id="jWwXobSsDPb9BA1wDoYC-2" value="Student Class Object" style="text;html=1;strokeColor=#6c8ebf;fillColor=#dae8fc;align=center;verticalAlign=middle;whiteSpace=wrap;rounded=0;fontFamily=Ubuntu;fontSource=https%3A%2F%2Ffonts.googleapis.com%2Fcss%3Ffamily%3DUbuntu;fontSize=14;" vertex="1" parent="N8QkOD5QlJYqmFSD2Ovq-1">
          <mxGeometry x="420" y="280" width="140" height="30" as="geometry" />
        </mxCell>
        <mxCell id="jWwXobSsDPb9BA1wDoYC-3" value="" style="shape=stencil(lVvZchw3DPwavbIIguez4/yHqyzHqiiSS7Zz/H3AKJwdNmd6pCo/yLvADA8c3QD2Tj98//rp2/1d8N9/vDz/fv/Xw+cfX+/0l7sQHp6+3r88/LC/7vTjnX748vxy/9vL88+nz6////apS/a//nj+sz/h71e91pyp9H/+n+2TWv775NdXhceHp71CdSHPCtXVRhSKS4uCZwrZ1TQrFOeFKojOCslltofkNM4K6hpbUlz2EPiS1JUyKdTmSiUKwTVQKC5wheBnhW2RxwriIiiIK2wP3uVZoVTX/LlC3+J8SiU7r0TBnjcbX1G6aVMQmRVskeTi7BB1No1s9ktMo2aXZtPIifpDTXjTWV1ke0jjTDYFcT4Qheh0PqVUx66OFXScyaZg/sAVwIGSmSMxjRpcmU0jeSeRKsT54qLdDH/D/4awKUSX+RvCvOkYrpaU5mNVi3xcoc2b1uIq8Tg7Vp1NQzONfKaAb4jcluzr2VpVucdF10BBuAOl5Q3eRWatCX06tBGpzjxO55sOlh8SVajzKYXMrdUi6Wx8wZyW3XQZ7rIp2EGzU7IVzzcdlBtfdQn2ICOOvDFUBu+ULak5nd8gjYeZ5vJ8SmLHwO5hAwqbQh7vPEsofnZRMXNkOc4j1hALbSzH2ZmAQqDWagqQFEUGIDp9w+wP4qm1moLM5l25sdqpzvLFFX7Pcd5ydpmnUIgxaaT5M3lwnshzSRlmuQUMV7g3RwV5z9azYLcw0uNZxBOwUr4ei/IJ5OnzZXEbigyr2cN8/t5V8nzDXDGAPAOSBrliw+cz+bi4jBO2Hlm8fiCmQ/nchnvc7kuI/RjcahnkWZLNAbOBDmxyKJ+WMBfHB8fyGSNEcomcZzIEO+/XECXx37TEuELPMxYEqHUs8Fg+jUS0URd6/lGH+d7kC5MXhLMWEIVkMkNZEBBNIZEdGMqKiwKjd7pAkK5AbMhQFsQsU4jkEnSDx/sswN5g5As4rUskCtnX7T1Zw75OCvKByZeFSFEr6kliPqFMAZE5VZitLlGr7k4+n0+k2KMHHfT6SqzUgqBgVmJIXJYsGcYFHssbVAKTo1RZlqgiFOhLwjKNUFBtwEqWrMSeH0b9443yB1lAmLxHlmxZlaEm5JdCg3QdIWp3+iyHLQSC1gQKRsRAmWjGkkOgtaWEzFgpvooIDyOlARFZAM9einFtI2cn4hB1ynD7E3HB1CUkaIYBdG4x05NrCmuIbfTpiAs5EJMlqXCblGEkOyrCgIwgDpZIgadgccHkEzEcwYhs8qz8J4jbTJ6VR/wIwHtyR56/VBcv5aFMcLkeWcgmA4ZbAt+fJzl/P2jK/r7o+iGKmDxLQQtPMO7L6uwecafJM+Dm0V06t6b7zRXlE3FHv0AkpUB4ox379VB5qPf18yH2sJS/+/lTf4mLv7DgdvT8SP0d188hz3o+caSxN55/vLCfvMQT7o9oP5EWylf7jJSIr/Yfqf0c+RfLXUf+y3jL++UxvyiF5H6xN6G4YaM0+8oVsTd/QIou7HOWb9TdZaWl3JrrbP2FJqOAJDnTamnA3JsGvTjBJWA6iZb0dCx1V3Ega49YcAg0rqVR7tthWSKesYshlOoWRJtCS7YVg5ofbcoT2A61SM67Oy0PIB8ZJBFEhJ6avCwX6zlLsQiv+HyWIhLGQN4bMdaXsTZX2PoL1sKEr6cNHnOTr8yr/CADO5bLWL1gTlG6nv71vJ5IqyTdVZDcUAifMScmXiUpWDXItLZu5r/U4il78si2KrVPNXsOIM9qtaq43zZIwFldKy21PMbP7PhgkGIUw08rcx7l2X6NwGEtktln9IMx3eRZlSQGjJ2NBvIY0Z4rTYm9Zw0TERRipwWTZAqR0kEiYvacMmKMSKtOqa29GVYnyWEgrl3VjKwnL7MQgRL8vPiX0PhZBOs8F72TiLDBU0jYeycYz2kvpCJn97x35bGX5nlLVsb2duvh8wMB80tiZbOI9+tpP7Ym9EehkLwW9PeLXt0y3qMUYteGmDzyrnsbjOPmX4Gspzd7sZfDim0mXxDVsnzRBDlOpfGwrTUcbkBdAQCBDBp2qgAsh0MCU8CyiVJM0/zi84mPA/pBJDaFrWV8emvwhkKZcp9LgFO6GFlZytPd0XiTHhyzQynepQd+ZK6gbNaoYpPMfIHOuFS8ODNu2rheWhy9icS9X+ANF3NrGUsQPd/zYT3If8o7gxbAgDQbBGtsScnJbHyqfH4w4uiQgTA6YLV0ajTzNyj6g8EwxhDrgsINh9E5TsXSbx+lYzMTinG+D+vxN4BpGLRicckUIDN3bMVHGiHMpEDnJvooHcxApss5TlgSb2f0SVEoYnD40mdRga5cjMcWvOmcKAFfg0CulKH1uDTfdPF8Mq6hxxXeeW0eN10SretaBoKBIINldK45oE8bzmKdkz6bPe+hj+SyMoiO0LspFNq6anFp3zfaL+8T7MDUhIb7gxn5i1G6jPVCeyczvlbwplvme6g419x/KsDAydKUvz3iWGGZpWuNTyg2HI/tCmzTy5xG4ylL/FJHbryw2l/RUIH+uqHhBJt9wqql/ZiWN7B6af86oAIjkn0BqwJfEs5TeM6t+iniSM6lBlYvGh9HbaPBt1dggePdP665VrA/br/l+fLw+Pj6U6D99/jbH/vo9XdD+vFf);lineShape=1;" vertex="1" parent="N8QkOD5QlJYqmFSD2Ovq-1">
          <mxGeometry x="503.74601610368563" y="13.836656669174772" width="329.7311593349473" height="352.63390299437856" as="geometry" />
        </mxCell>
        <mxCell id="jWwXobSsDPb9BA1wDoYC-4" value="" style="shape=stencil(nVfLbttADPwaXQnue3lO0/8IEKc26tqB477+vnQFKSYlTYreZGlHFDkzJD2kh7f90+tuiPx2vZy/7n4enq/7IX0aYjyc9rvL4apXQ3oc0sPL+bL7cjl/Pz2Pv1+fbidvV9/OP25v+DXiYqRUbqjIv8c7IVCIf+98HgHHw8kCSjaAKFQRIFOxEUqkJgDQKVQDqJ1y2gbk5CPUQjVvA0qlZiOURqlvA5p+gBhALtQBoEcSGyFniiDp3qjKAlC2ARIpdP9JDSQthaRZQKcKyir62FUpUmUAEB9ByxrRJ4nnoUbiCj+JHdOVCgIU4mgAjSk2AAjEbAFYrb1SssS1hKURqHYPyKCsTbVpy9oC5QAAiSR4AwXAtL7PMV1xDlrE7jwtH0UoThqZEiBOc2guAhMD4rRKwQKyuhz0JeUhW2mo4ypwnDIdFgAG0hCeDHlnUQZllUzdRWhUkEWbZ7qEqS1sOs7KuxSYdGD2hqhMGXu0WX1rN0bakLro9zJxudX6HHPq0YAaU5zmxz8CWqFo69qZBFBdA3UbQRu6oJm1kKu2qgbKqlPRMXdHzTp1ecpxDpEmataToGTlqhZh0L6jbwJKdAI5s6+RDm6kJPZjPTG0z0KpusoUQNo8CeZ8p4TW60nBHq8UEWG+p6ZpJVgXxLSxzGsVVqjPVXsNGmvT4H4/juZs0K1wcR5LTZI7jzaF0LzUZv+snxc/ZBPeOXmxiUBqNbzYntXhSP6frfkjgF68L+kvh+Nx3PHvn/ulXm+NfwjS4x8=);lineShape=1;" vertex="1" parent="N8QkOD5QlJYqmFSD2Ovq-1">
          <mxGeometry x="497.82649010510113" y="50.83700249141373" width="19.44544234805744" height="19.046572967595694" as="geometry" />
        </mxCell>
        <mxCell id="jWwXobSsDPb9BA1wDoYC-5" value="" style="shape=stencil(nVvbch0nEPwavVIwAww8O85/uMpyrIpjuWTn9vcZorASzW4fO2/yMb0LzEzPde/0zdeP777c30n8+u3p8df7Px/ef/t4pz/diTx8/nj/9PDN/7rTt3f65sPj0/0vT4+/f37//O8v78bK8ddvj3+MJ/z1jKs5xDZQEv9+/qX30OO/v/z8DPj08Pk1IIYCgBZ6vQaUGrquAAvGADmUsgJqsE4AEqKsgBIqOUPuoeQVkIMkArCgAJBQjQBKKLYCYugMkENe39A635KGtl5rs5CFAiyuAN8kuVYHdAD4I5SeQeAMaW7yCvCfIkyAufKxM7hcV0mbhd4IoIa6aqvVkNgb/Hmr8lkOygA9KLxBQmHq7Yqw3pJFanGu3rUvgOrvJLrkBlTXN1Sb77wyUVt1qdZp5eeAtm2pBOWsUVddGsRDtlQl5LQChJKAPy/BGVIoRPl8xwa3FIMQwfklpvUMfg2dvaEFWXWpGOUll2taD+2SYcrnAFvlUEqI5JZc1XS9peJWTmjGAQZn4HKwFCIAEmUNB+AtRcqtDsgrwG3wBsDWa81t0sI5wB3Kyt5OC0YE5wBQbyceI4IzDQpnKByQkWacPOmhy3ZopTbtTCqramQnMralhh4ou2SIarQY8kr32X8hZ2iCFqc9ZHIGd1B1PbS2UIh6txwavMEoe7fNsau7mEIBtgpOS2hsS+7j1lvSTH2cA0QQkNiWMoY/qpS9h9+HN8jU3yvBtZWXNFGX5YAIgEijmXao2gRInxHUFUAA0CaPXL5hlbTY1N/LM6w2LZXbg4a4aqsU6rJccHnVJclcW+v0aAeAk0BrGMKJ0CDRw1qBM6Rpg+eA/ZYiNaCuSGSpUzL24D+tgkttuvpzQMVYI/EMxROYtN5SqqGxMxjqUirUph1QBAGJqMZ4w0pkyaNxYnEnZ1BqcSMJgzPI5MIrADj2lGbYeCW4sppoijR/6Bt7d5pkuSo1yCxpMuC6CsGPmweT2kFyR2jPGaNvYfTk/vP1huvdlXDPkCHao0o0aBuCjGkZVw4digdK7cZDjAiOhzoqj5IgvBUaP9vhM17Ws/N6RB9XekyUKOpORdPqrrKejM9PLDW0oOvzPTNkhY+MTOf2whLDiMltpLG8R72QbsdbBQCNuJ7VMCJWGPh6NQyzIw2lNKNzStPjnq93T6SwnsVFbq590x9yP67uAv571pVO17ujq6u8lOqzeyHw3jzJdsbHjJavjzMbfeGryHKQrZZCk9OKbNLo8iP/eSFzKtxZWXpZ3ohsFYuQfngWzHkEDb4rUd/i6yuuN8KF+/N5CK6YJPt6luj7eSF+UJqb6Qw8X8UbjJt1o8JMbcVVs+P6RnRTtugk05qXbMFJplybsJDoARlTt0P6r59PfPVOPZnKK57sn3FhRNc75EX3A7lJOsryF+vTJl8WTkbM33y90v337bzCuPDk+YnIdyv53Fxft/th+9GT57Pz7vbO73PnKy4vnXWR79QHRdd+Q98Euz439FkwVL1hL2lGOt9tj/v+mb1HLNuM9US+ceNzzlcRCx43+NDXb/tnifn/WA/7V5q7xC19FNrFiFhdHP7rh+4z0QJpxLqcr490/8gncVrchf5gQ4+maoIltka1ISPbGk3sCraQePmh4V0WGvaPyGXVzUyvPmWsnygtTSdDbhD6fNnq92787O7L5qtp2jVEiWkF278qVnMi7dJ42iKY1iWeFkH19DDmq7Qr4/PpesM039cTUyxb6ZTv39NSw/0Ia3DaZOJX98kacQmbJ5FWQWtGLo/UXPa+XaKteEvYPk2zAXu+vuDzeZnCtm6r0AJoS5hWK00zRxME2l1UH5rhCMhxwVdlrr4+v/DCoWAbtFJq7tuggs08+KrOCHzYZh58WR82WM8mXkYtFsuMjPz7VnR3X8QIcUzcACHeKLp3nC4ZtVsOwHRKZwPyCoClkEy76SnuEUqZMcXVK9pWdWflir6NZjigszJ9m+2XA2A0aHVJy9ZqoICCFc3UJ9lflbjBFgZ5MeUT3NLwluyWtqKO0wttULatyqrc/itOWgzCYIRUMPmRwgvjGasLThmMYpqiix2let6rgxboaB8yklS0UWcB5tVGVxZYO9IMcdzSuiVN1ORGN3BVbxWaszrRw0yNKk2KHYDt9ExreK5LqSGAtXBOAIXHvjaV+QBU2qTwW4JCofLhj9Gwh941Hy9pW9leeTLRtmzCQ0QWYbSIZ8iJvsH6No8ifETGJgsdAOUDLBUTqMyjBtu6gZkPTljeuld8bnTM1MAAi9EarCkmjbnRhoUDoICfO22BOgAcdYl88ki36ak0Xfc5QDB3LEKbrCbYih4jY3zcCsO9QvOvMQG2Cq5U2lcbfT7oW3ATrR0jrNL5+KFhrFEjb/VVHMKpvNldN7qvQoOTKtjvqHxo2XcM07W10JJ+acjelVPlydwob9mUjGTskiksNVQskxlv4bn2A1WO2TxyrW5fUKh3WmCSdpMH5hsjxbyLCof2hI7lV3lrK46xaHIGB+DweKJO0QHQ+BvxDatPFYxmxiAcH7yGfoM7YpZAjEltmGfvNB0YXA0z+Tytd+qFNK7zJMh1CbbUM1e+jEXUkWoyi6snnzqwCbBhogAwOsXmrAGhtCc5dAa5oI/zNIrOUVc0oAEgkq5bGNo7NdG6TbGN9JTEGjsZ986Hx8/OQEtEWwV2JMCMjAvmD53b9ODqTQ6sIVLL1oGLvA7o/qP9MAKr4Dc2lXGi5daxf/h7pNsA/+Pl86cPD58+PX899fr/8XMp/+n5Uyt9+w8=);lineShape=1;" vertex="1" parent="N8QkOD5QlJYqmFSD2Ovq-1">
          <mxGeometry x="708.9772131297095" y="-0.39767253341369724" width="113.84701473420864" height="492.8034757187738" as="geometry" />
        </mxCell>
        <mxCell id="jWwXobSsDPb9BA1wDoYC-6" value="" style="shape=stencil(lVfLctswDPwaXTHgmzyn6X9kJk7tqWtnHKdt/j5QVSYCJK3bmyxjBQLYBcAh3L3sH553g+eX6+X8fffr8HjdD+HL4P3htN9dDld5GsL9EO6ezpfdt8v59fQ4/X5+GC3Hpx/nn+MXfk84xxTiiPL8Nr0JxOHPi6+T/fFwmtl7phiUvffEEQAKMWsHgUrbBsjfvipAjFQZABr5ogApUvPbAPle0x5y7FGtAhKTTwpQPCUQQ6rE+kjVUwFZytlmqUTybhtQJInexvA3b6uAWijrI8UEs1Qb5WDrwADQHDWnAYEciKFFWzgBeJDWlilme6QECtfqwkPueVsHNIpNAyQNIAbHbCuXPDVAV3FRNJlSJp9hEEVHnRoFFEQhpzWdHRXAjZaI9ZFyoICO5BfsC7346wBpM3XhoQD21c6EWQyoC9Rs+T1mKQFAWgAyZJ8Aoub3WGnAvvohsDmZEEAKZySXYduQLLWFRhMIWjRqPUgdEFvDQhA3RJ0sW8e2gQDFcmlsTFhAzniolBC9m21M6YYemi1cSt3nPx5JJgAUUOl1ndGbUeFWAYgahaoOWiYK8lAqVU0N4S+DLOVGSWdJGnoDHjJT0q1y1j03B6/O6zgCgIKio6QBNUBBhExhkaaM1hPubWg2eCvoZD4u2Bdh63N1IQgsOef79z5WLNcH5TrAxuwCFBDbpDrpxdDe6e+3vnBtmNvd54a5N+KkBgrGVMwK0KfjRm6y/rpsemi9pWJS2TeOdfbYzVPWacT/PsE+zZFcsm29DAVcbZmYMghVxmkwoSLz/71Z3LaXh89rzNPheJxuQfP/7bVHXk1XpnD/Dg==);lineShape=1;" vertex="1" parent="N8QkOD5QlJYqmFSD2Ovq-1">
          <mxGeometry x="692.9617117941707" y="47.96691079685604" width="34.96958742008064" height="24.488158117993294" as="geometry" />
        </mxCell>
        <mxCell id="jWwXobSsDPb9BA1wDoYC-8" value="id: int" style="rounded=0;whiteSpace=wrap;html=1;fontFamily=Ubuntu;fontSource=https%3A%2F%2Ffonts.googleapis.com%2Fcss%3Ffamily%3DUbuntu;fontSize=14;fillColor=#f8cecc;strokeColor=#b85450;fillStyle=dots;" vertex="1" parent="N8QkOD5QlJYqmFSD2Ovq-1">
          <mxGeometry x="420" y="80" width="140" height="30" as="geometry" />
        </mxCell>
        <mxCell id="jWwXobSsDPb9BA1wDoYC-9" value="name: String" style="rounded=0;whiteSpace=wrap;html=1;fontFamily=Ubuntu;fontSource=https%3A%2F%2Ffonts.googleapis.com%2Fcss%3Ffamily%3DUbuntu;fontSize=14;fillColor=#f8cecc;strokeColor=#b85450;fillStyle=dots;" vertex="1" parent="N8QkOD5QlJYqmFSD2Ovq-1">
          <mxGeometry x="420" y="110" width="140" height="30" as="geometry" />
        </mxCell>
        <mxCell id="jWwXobSsDPb9BA1wDoYC-10" value="Student(int id, String name)" style="ellipse;whiteSpace=wrap;html=1;fontFamily=Ubuntu;fontSource=https%3A%2F%2Ffonts.googleapis.com%2Fcss%3Ffamily%3DUbuntu;fontSize=14;fillColor=#f8cecc;strokeColor=#b85450;fillStyle=dots;" vertex="1" parent="N8QkOD5QlJYqmFSD2Ovq-1">
          <mxGeometry x="430" y="150.15" width="120" height="80" as="geometry" />
        </mxCell>
        <mxCell id="jWwXobSsDPb9BA1wDoYC-11" value="" style="rounded=0;whiteSpace=wrap;html=1;fontFamily=Ubuntu;fontSource=https%3A%2F%2Ffonts.googleapis.com%2Fcss%3Ffamily%3DUbuntu;fontSize=14;movable=1;resizable=1;rotatable=1;deletable=1;editable=1;locked=0;connectable=1;" vertex="1" parent="N8QkOD5QlJYqmFSD2Ovq-1">
          <mxGeometry x="320" y="370" width="140" height="200" as="geometry" />
        </mxCell>
        <mxCell id="jWwXobSsDPb9BA1wDoYC-13" style="edgeStyle=orthogonalEdgeStyle;rounded=0;orthogonalLoop=1;jettySize=auto;html=1;entryX=0.4;entryY=1;entryDx=0;entryDy=0;entryPerimeter=0;dashed=1;" edge="1" parent="N8QkOD5QlJYqmFSD2Ovq-1" source="jWwXobSsDPb9BA1wDoYC-12" target="jWwXobSsDPb9BA1wDoYC-2">
          <mxGeometry relative="1" as="geometry" />
        </mxCell>
        <mxCell id="jWwXobSsDPb9BA1wDoYC-12" value="0xAF13" style="text;html=1;strokeColor=#6c8ebf;fillColor=#dae8fc;align=center;verticalAlign=middle;whiteSpace=wrap;rounded=0;fontFamily=Ubuntu;fontSource=https%3A%2F%2Ffonts.googleapis.com%2Fcss%3Ffamily%3DUbuntu;fontSize=14;" vertex="1" parent="N8QkOD5QlJYqmFSD2Ovq-1">
          <mxGeometry x="320" y="340" width="60" height="30" as="geometry" />
        </mxCell>
        <mxCell id="jWwXobSsDPb9BA1wDoYC-14" value="id: int = 0" style="rounded=0;whiteSpace=wrap;html=1;fontFamily=Ubuntu;fontSource=https%3A%2F%2Ffonts.googleapis.com%2Fcss%3Ffamily%3DUbuntu;fontSize=14;fillStyle=auto;" vertex="1" parent="N8QkOD5QlJYqmFSD2Ovq-1">
          <mxGeometry x="320" y="370" width="140" height="30" as="geometry" />
        </mxCell>
        <mxCell id="jWwXobSsDPb9BA1wDoYC-15" value="name: String = null" style="rounded=0;whiteSpace=wrap;html=1;fontFamily=Ubuntu;fontSource=https%3A%2F%2Ffonts.googleapis.com%2Fcss%3Ffamily%3DUbuntu;fontSize=14;fillStyle=auto;" vertex="1" parent="N8QkOD5QlJYqmFSD2Ovq-1">
          <mxGeometry x="320" y="400" width="140" height="30" as="geometry" />
        </mxCell>
        <mxCell id="jWwXobSsDPb9BA1wDoYC-16" value="Student(int id, String name)" style="ellipse;whiteSpace=wrap;html=1;fontFamily=Ubuntu;fontSource=https%3A%2F%2Ffonts.googleapis.com%2Fcss%3Ffamily%3DUbuntu;fontSize=14;fillStyle=auto;" vertex="1" parent="N8QkOD5QlJYqmFSD2Ovq-1">
          <mxGeometry x="330" y="440.15" width="120" height="80" as="geometry" />
        </mxCell>
      </root>
    </mxGraphModel>
  </diagram>
  <diagram name="Page-3" id="4gSBPHFNwluWTH2Tvvc6">
    <mxGraphModel dx="1980" dy="595" grid="1" gridSize="10" guides="1" tooltips="1" connect="1" arrows="1" fold="1" page="1" pageScale="1" pageWidth="1100" pageHeight="850" math="0" shadow="0">
      <root>
        <mxCell id="jlvIZHqj3tA4NNaAW3DX-0" />
        <mxCell id="jlvIZHqj3tA4NNaAW3DX-1" parent="jlvIZHqj3tA4NNaAW3DX-0" />
        <mxCell id="jlvIZHqj3tA4NNaAW3DX-2" value="" style="rounded=0;whiteSpace=wrap;html=1;fontFamily=Ubuntu;fontSource=https%3A%2F%2Ffonts.googleapis.com%2Fcss%3Ffamily%3DUbuntu;fontSize=14;movable=0;resizable=0;rotatable=0;deletable=0;editable=0;locked=1;connectable=0;" vertex="1" parent="jlvIZHqj3tA4NNaAW3DX-1">
          <mxGeometry x="40" y="40" width="160" height="560" as="geometry" />
        </mxCell>
        <mxCell id="jlvIZHqj3tA4NNaAW3DX-3" value="" style="rounded=0;whiteSpace=wrap;html=1;fontFamily=Ubuntu;fontSource=https%3A%2F%2Ffonts.googleapis.com%2Fcss%3Ffamily%3DUbuntu;fontSize=14;movable=0;resizable=0;rotatable=0;deletable=0;editable=0;locked=1;connectable=0;" vertex="1" parent="jlvIZHqj3tA4NNaAW3DX-1">
          <mxGeometry x="200" y="40" width="560" height="280" as="geometry" />
        </mxCell>
        <mxCell id="jlvIZHqj3tA4NNaAW3DX-4" value="" style="rounded=0;whiteSpace=wrap;html=1;fontFamily=Ubuntu;fontSource=https%3A%2F%2Ffonts.googleapis.com%2Fcss%3Ffamily%3DUbuntu;fontSize=14;movable=0;resizable=0;rotatable=0;deletable=0;editable=0;locked=1;connectable=0;" vertex="1" parent="jlvIZHqj3tA4NNaAW3DX-1">
          <mxGeometry x="200" y="320" width="560" height="280" as="geometry" />
        </mxCell>
        <mxCell id="jlvIZHqj3tA4NNaAW3DX-5" value="Demo6.class" style="rounded=0;whiteSpace=wrap;html=1;fontFamily=Ubuntu;fontSource=https%3A%2F%2Ffonts.googleapis.com%2Fcss%3Ffamily%3DUbuntu;fontSize=14;movable=0;resizable=0;rotatable=0;deletable=0;editable=0;locked=1;connectable=0;" vertex="1" parent="jlvIZHqj3tA4NNaAW3DX-1">
          <mxGeometry x="780" y="500" width="100" height="100" as="geometry" />
        </mxCell>
        <mxCell id="jlvIZHqj3tA4NNaAW3DX-6" value="Student.class" style="rounded=0;whiteSpace=wrap;html=1;fontFamily=Ubuntu;fontSource=https%3A%2F%2Ffonts.googleapis.com%2Fcss%3Ffamily%3DUbuntu;fontSize=14;movable=0;resizable=0;rotatable=0;deletable=0;editable=0;locked=1;connectable=0;" vertex="1" parent="jlvIZHqj3tA4NNaAW3DX-1">
          <mxGeometry x="800" y="375" width="100" height="100" as="geometry" />
        </mxCell>
        <mxCell id="jlvIZHqj3tA4NNaAW3DX-7" value="Application Class Loader" style="shape=umlActor;verticalLabelPosition=bottom;verticalAlign=top;html=1;outlineConnect=0;fontFamily=Ubuntu;fontSource=https%3A%2F%2Ffonts.googleapis.com%2Fcss%3Ffamily%3DUbuntu;align=left;movable=0;resizable=0;rotatable=0;deletable=0;editable=0;locked=1;connectable=0;" vertex="1" parent="jlvIZHqj3tA4NNaAW3DX-1">
          <mxGeometry x="815" y="40" width="30" height="60" as="geometry" />
        </mxCell>
        <mxCell id="jlvIZHqj3tA4NNaAW3DX-8" value="STACK" style="text;html=1;strokeColor=none;fillColor=none;align=center;verticalAlign=middle;whiteSpace=wrap;rounded=0;fontFamily=Ubuntu;fontSource=https%3A%2F%2Ffonts.googleapis.com%2Fcss%3Ffamily%3DUbuntu;fontSize=26;fontColor=#CCCCCC;movable=0;resizable=0;rotatable=0;deletable=0;editable=0;locked=1;connectable=0;" vertex="1" parent="jlvIZHqj3tA4NNaAW3DX-1">
          <mxGeometry x="60" y="300" width="120" height="50" as="geometry" />
        </mxCell>
        <mxCell id="jlvIZHqj3tA4NNaAW3DX-9" value="METHOD AREA" style="text;html=1;strokeColor=none;fillColor=none;align=center;verticalAlign=middle;whiteSpace=wrap;rounded=0;fontFamily=Ubuntu;fontSource=https%3A%2F%2Ffonts.googleapis.com%2Fcss%3Ffamily%3DUbuntu;fontSize=26;fontColor=#CCCCCC;movable=0;resizable=0;rotatable=0;deletable=0;editable=0;locked=1;connectable=0;" vertex="1" parent="jlvIZHqj3tA4NNaAW3DX-1">
          <mxGeometry x="420" y="140" width="120" height="50" as="geometry" />
        </mxCell>
        <mxCell id="jlvIZHqj3tA4NNaAW3DX-10" value="HEAP" style="text;html=1;strokeColor=none;fillColor=none;align=center;verticalAlign=middle;whiteSpace=wrap;rounded=0;fontFamily=Ubuntu;fontSource=https%3A%2F%2Ffonts.googleapis.com%2Fcss%3Ffamily%3DUbuntu;fontSize=26;fontColor=#CCCCCC;movable=0;resizable=0;rotatable=0;deletable=0;editable=0;locked=1;connectable=0;" vertex="1" parent="jlvIZHqj3tA4NNaAW3DX-1">
          <mxGeometry x="420" y="425" width="120" height="50" as="geometry" />
        </mxCell>
        <mxCell id="jlvIZHqj3tA4NNaAW3DX-11" value="" style="rounded=0;whiteSpace=wrap;html=1;fontFamily=Ubuntu;fontSource=https%3A%2F%2Ffonts.googleapis.com%2Fcss%3Ffamily%3DUbuntu;fontSize=14;movable=1;resizable=1;rotatable=1;deletable=1;editable=1;locked=0;connectable=1;" vertex="1" parent="jlvIZHqj3tA4NNaAW3DX-1">
          <mxGeometry x="600" y="80" width="140" height="200" as="geometry" />
        </mxCell>
        <mxCell id="jlvIZHqj3tA4NNaAW3DX-12" value="0xAF10" style="text;html=1;strokeColor=#6c8ebf;fillColor=#dae8fc;align=center;verticalAlign=middle;whiteSpace=wrap;rounded=0;fontFamily=Ubuntu;fontSource=https%3A%2F%2Ffonts.googleapis.com%2Fcss%3Ffamily%3DUbuntu;fontSize=14;" vertex="1" parent="jlvIZHqj3tA4NNaAW3DX-1">
          <mxGeometry x="600" y="50" width="60" height="30" as="geometry" />
        </mxCell>
        <mxCell id="jlvIZHqj3tA4NNaAW3DX-13" value="Demo6 Class Object" style="text;html=1;strokeColor=#6c8ebf;fillColor=#dae8fc;align=center;verticalAlign=middle;whiteSpace=wrap;rounded=0;fontFamily=Ubuntu;fontSource=https%3A%2F%2Ffonts.googleapis.com%2Fcss%3Ffamily%3DUbuntu;fontSize=14;" vertex="1" parent="jlvIZHqj3tA4NNaAW3DX-1">
          <mxGeometry x="600" y="280" width="140" height="30" as="geometry" />
        </mxCell>
        <mxCell id="jlvIZHqj3tA4NNaAW3DX-14" value="Demo6()" style="ellipse;whiteSpace=wrap;html=1;fontFamily=Ubuntu;fontSource=https%3A%2F%2Ffonts.googleapis.com%2Fcss%3Ffamily%3DUbuntu;fontSize=14;fillColor=#f8cecc;strokeColor=#b85450;fillStyle=dots;" vertex="1" parent="jlvIZHqj3tA4NNaAW3DX-1">
          <mxGeometry x="610" y="90" width="120" height="80" as="geometry" />
        </mxCell>
        <mxCell id="jlvIZHqj3tA4NNaAW3DX-15" value="psvm()" style="ellipse;whiteSpace=wrap;html=1;fontFamily=Ubuntu;fontSource=https%3A%2F%2Ffonts.googleapis.com%2Fcss%3Ffamily%3DUbuntu;fontSize=14;" vertex="1" parent="jlvIZHqj3tA4NNaAW3DX-1">
          <mxGeometry x="610" y="180" width="120" height="80" as="geometry" />
        </mxCell>
        <mxCell id="jlvIZHqj3tA4NNaAW3DX-16" value="" style="rounded=0;whiteSpace=wrap;html=1;fillColor=#d5e8d4;strokeColor=#82b366;strokeWidth=6;" vertex="1" parent="jlvIZHqj3tA4NNaAW3DX-1">
          <mxGeometry x="40" y="410" width="160" height="190" as="geometry" />
        </mxCell>
        <mxCell id="jlvIZHqj3tA4NNaAW3DX-17" value="Demo6 (0xAF10). main()" style="text;html=1;strokeColor=none;fillColor=none;align=center;verticalAlign=middle;whiteSpace=wrap;rounded=0;fontFamily=Ubuntu;fontSource=https%3A%2F%2Ffonts.googleapis.com%2Fcss%3Ffamily%3DUbuntu;fontSize=16;" vertex="1" parent="jlvIZHqj3tA4NNaAW3DX-1">
          <mxGeometry x="-160" y="520" width="190" height="30" as="geometry" />
        </mxCell>
        <mxCell id="jlvIZHqj3tA4NNaAW3DX-18" style="edgeStyle=orthogonalEdgeStyle;rounded=0;orthogonalLoop=1;jettySize=auto;html=1;entryX=0;entryY=0.25;entryDx=0;entryDy=0;dashed=1;" edge="1" parent="jlvIZHqj3tA4NNaAW3DX-1" source="jlvIZHqj3tA4NNaAW3DX-19" target="jlvIZHqj3tA4NNaAW3DX-12">
          <mxGeometry relative="1" as="geometry">
            <Array as="points">
              <mxPoint x="210" y="428" />
              <mxPoint x="210" y="58" />
            </Array>
          </mxGeometry>
        </mxCell>
        <mxCell id="jlvIZHqj3tA4NNaAW3DX-19" value="RCP = 0xAF10" style="rounded=0;whiteSpace=wrap;html=1;fontFamily=Ubuntu;fontSource=https%3A%2F%2Ffonts.googleapis.com%2Fcss%3Ffamily%3DUbuntu;fontSize=16;" vertex="1" parent="jlvIZHqj3tA4NNaAW3DX-1">
          <mxGeometry x="40" y="410" width="160" height="35" as="geometry" />
        </mxCell>
        <mxCell id="jlvIZHqj3tA4NNaAW3DX-20" style="edgeStyle=orthogonalEdgeStyle;rounded=0;orthogonalLoop=1;jettySize=auto;html=1;dashed=1;" edge="1" parent="jlvIZHqj3tA4NNaAW3DX-1" source="jlvIZHqj3tA4NNaAW3DX-21" target="jlvIZHqj3tA4NNaAW3DX-22">
          <mxGeometry relative="1" as="geometry" />
        </mxCell>
        <mxCell id="jlvIZHqj3tA4NNaAW3DX-21" value="String[] args = 0xAF11" style="rounded=0;whiteSpace=wrap;html=1;fontFamily=Ubuntu;fontSource=https%3A%2F%2Ffonts.googleapis.com%2Fcss%3Ffamily%3DUbuntu;fontSize=16;" vertex="1" parent="jlvIZHqj3tA4NNaAW3DX-1">
          <mxGeometry x="40" y="445" width="160" height="45" as="geometry" />
        </mxCell>
        <mxCell id="jlvIZHqj3tA4NNaAW3DX-22" value="0xAF11" style="text;html=1;strokeColor=#6c8ebf;fillColor=#dae8fc;align=center;verticalAlign=middle;whiteSpace=wrap;rounded=0;fontFamily=Ubuntu;fontSource=https%3A%2F%2Ffonts.googleapis.com%2Fcss%3Ffamily%3DUbuntu;fontSize=14;" vertex="1" parent="jlvIZHqj3tA4NNaAW3DX-1">
          <mxGeometry x="210" y="520" width="60" height="30" as="geometry" />
        </mxCell>
        <mxCell id="jlvIZHqj3tA4NNaAW3DX-23" value="" style="rounded=0;whiteSpace=wrap;html=1;" vertex="1" parent="jlvIZHqj3tA4NNaAW3DX-1">
          <mxGeometry x="210" y="550" width="10" height="20" as="geometry" />
        </mxCell>
        <mxCell id="jlvIZHqj3tA4NNaAW3DX-24" value="Student s1" style="rounded=0;whiteSpace=wrap;html=1;fontFamily=Ubuntu;fontSource=https%3A%2F%2Ffonts.googleapis.com%2Fcss%3Ffamily%3DUbuntu;fontSize=16;" vertex="1" parent="jlvIZHqj3tA4NNaAW3DX-1">
          <mxGeometry x="40" y="490" width="160" height="35" as="geometry" />
        </mxCell>
        <mxCell id="jlvIZHqj3tA4NNaAW3DX-25" value="Student s2" style="rounded=0;whiteSpace=wrap;html=1;fontFamily=Ubuntu;fontSource=https%3A%2F%2Ffonts.googleapis.com%2Fcss%3Ffamily%3DUbuntu;fontSize=16;" vertex="1" parent="jlvIZHqj3tA4NNaAW3DX-1">
          <mxGeometry x="40" y="525" width="160" height="35" as="geometry" />
        </mxCell>
        <mxCell id="jlvIZHqj3tA4NNaAW3DX-26" value="Student s3" style="rounded=0;whiteSpace=wrap;html=1;fontFamily=Ubuntu;fontSource=https%3A%2F%2Ffonts.googleapis.com%2Fcss%3Ffamily%3DUbuntu;fontSize=16;" vertex="1" parent="jlvIZHqj3tA4NNaAW3DX-1">
          <mxGeometry x="40" y="560" width="160" height="35" as="geometry" />
        </mxCell>
        <mxCell id="jlvIZHqj3tA4NNaAW3DX-27" value="" style="rounded=0;whiteSpace=wrap;html=1;fontFamily=Ubuntu;fontSource=https%3A%2F%2Ffonts.googleapis.com%2Fcss%3Ffamily%3DUbuntu;fontSize=14;movable=1;resizable=1;rotatable=1;deletable=1;editable=1;locked=0;connectable=1;" vertex="1" parent="jlvIZHqj3tA4NNaAW3DX-1">
          <mxGeometry x="420" y="80" width="140" height="200" as="geometry" />
        </mxCell>
        <mxCell id="jlvIZHqj3tA4NNaAW3DX-28" value="0xAF12" style="text;html=1;strokeColor=#6c8ebf;fillColor=#dae8fc;align=center;verticalAlign=middle;whiteSpace=wrap;rounded=0;fontFamily=Ubuntu;fontSource=https%3A%2F%2Ffonts.googleapis.com%2Fcss%3Ffamily%3DUbuntu;fontSize=14;" vertex="1" parent="jlvIZHqj3tA4NNaAW3DX-1">
          <mxGeometry x="420" y="50" width="60" height="30" as="geometry" />
        </mxCell>
        <mxCell id="jlvIZHqj3tA4NNaAW3DX-29" value="Student Class Object" style="text;html=1;strokeColor=#6c8ebf;fillColor=#dae8fc;align=center;verticalAlign=middle;whiteSpace=wrap;rounded=0;fontFamily=Ubuntu;fontSource=https%3A%2F%2Ffonts.googleapis.com%2Fcss%3Ffamily%3DUbuntu;fontSize=14;" vertex="1" parent="jlvIZHqj3tA4NNaAW3DX-1">
          <mxGeometry x="420" y="280" width="140" height="30" as="geometry" />
        </mxCell>
        <mxCell id="jlvIZHqj3tA4NNaAW3DX-30" value="" style="shape=stencil(lVvZchw3DPwavbIIguez4/yHqyzHqiiSS7Zz/H3AKJwdNmd6pCo/yLvADA8c3QD2Tj98//rp2/1d8N9/vDz/fv/Xw+cfX+/0l7sQHp6+3r88/LC/7vTjnX748vxy/9vL88+nz6////apS/a//nj+sz/h71e91pyp9H/+n+2TWv775NdXhceHp71CdSHPCtXVRhSKS4uCZwrZ1TQrFOeFKojOCslltofkNM4K6hpbUlz2EPiS1JUyKdTmSiUKwTVQKC5wheBnhW2RxwriIiiIK2wP3uVZoVTX/LlC3+J8SiU7r0TBnjcbX1G6aVMQmRVskeTi7BB1No1s9ktMo2aXZtPIifpDTXjTWV1ke0jjTDYFcT4Qheh0PqVUx66OFXScyaZg/sAVwIGSmSMxjRpcmU0jeSeRKsT54qLdDH/D/4awKUSX+RvCvOkYrpaU5mNVi3xcoc2b1uIq8Tg7Vp1NQzONfKaAb4jcluzr2VpVucdF10BBuAOl5Q3eRWatCX06tBGpzjxO55sOlh8SVajzKYXMrdUi6Wx8wZyW3XQZ7rIp2EGzU7IVzzcdlBtfdQn2ICOOvDFUBu+ULak5nd8gjYeZ5vJ8SmLHwO5hAwqbQh7vPEsofnZRMXNkOc4j1hALbSzH2ZmAQqDWagqQFEUGIDp9w+wP4qm1moLM5l25sdqpzvLFFX7Pcd5ydpmnUIgxaaT5M3lwnshzSRlmuQUMV7g3RwV5z9azYLcw0uNZxBOwUr4ei/IJ5OnzZXEbigyr2cN8/t5V8nzDXDGAPAOSBrliw+cz+bi4jBO2Hlm8fiCmQ/nchnvc7kuI/RjcahnkWZLNAbOBDmxyKJ+WMBfHB8fyGSNEcomcZzIEO+/XECXx37TEuELPMxYEqHUs8Fg+jUS0URd6/lGH+d7kC5MXhLMWEIVkMkNZEBBNIZEdGMqKiwKjd7pAkK5AbMhQFsQsU4jkEnSDx/sswN5g5As4rUskCtnX7T1Zw75OCvKByZeFSFEr6kliPqFMAZE5VZitLlGr7k4+n0+k2KMHHfT6SqzUgqBgVmJIXJYsGcYFHssbVAKTo1RZlqgiFOhLwjKNUFBtwEqWrMSeH0b9443yB1lAmLxHlmxZlaEm5JdCg3QdIWp3+iyHLQSC1gQKRsRAmWjGkkOgtaWEzFgpvooIDyOlARFZAM9einFtI2cn4hB1ynD7E3HB1CUkaIYBdG4x05NrCmuIbfTpiAs5EJMlqXCblGEkOyrCgIwgDpZIgadgccHkEzEcwYhs8qz8J4jbTJ6VR/wIwHtyR56/VBcv5aFMcLkeWcgmA4ZbAt+fJzl/P2jK/r7o+iGKmDxLQQtPMO7L6uwecafJM+Dm0V06t6b7zRXlE3FHv0AkpUB4ox379VB5qPf18yH2sJS/+/lTf4mLv7DgdvT8SP0d188hz3o+caSxN55/vLCfvMQT7o9oP5EWylf7jJSIr/Yfqf0c+RfLXUf+y3jL++UxvyiF5H6xN6G4YaM0+8oVsTd/QIou7HOWb9TdZaWl3JrrbP2FJqOAJDnTamnA3JsGvTjBJWA6iZb0dCx1V3Ega49YcAg0rqVR7tthWSKesYshlOoWRJtCS7YVg5ofbcoT2A61SM67Oy0PIB8ZJBFEhJ6avCwX6zlLsQiv+HyWIhLGQN4bMdaXsTZX2PoL1sKEr6cNHnOTr8yr/CADO5bLWL1gTlG6nv71vJ5IqyTdVZDcUAifMScmXiUpWDXItLZu5r/U4il78si2KrVPNXsOIM9qtaq43zZIwFldKy21PMbP7PhgkGIUw08rcx7l2X6NwGEtktln9IMx3eRZlSQGjJ2NBvIY0Z4rTYm9Zw0TERRipwWTZAqR0kEiYvacMmKMSKtOqa29GVYnyWEgrl3VjKwnL7MQgRL8vPiX0PhZBOs8F72TiLDBU0jYeycYz2kvpCJn97x35bGX5nlLVsb2duvh8wMB80tiZbOI9+tpP7Ym9EehkLwW9PeLXt0y3qMUYteGmDzyrnsbjOPmX4Gspzd7sZfDim0mXxDVsnzRBDlOpfGwrTUcbkBdAQCBDBp2qgAsh0MCU8CyiVJM0/zi84mPA/pBJDaFrWV8emvwhkKZcp9LgFO6GFlZytPd0XiTHhyzQynepQd+ZK6gbNaoYpPMfIHOuFS8ODNu2rheWhy9icS9X+ANF3NrGUsQPd/zYT3If8o7gxbAgDQbBGtsScnJbHyqfH4w4uiQgTA6YLV0ajTzNyj6g8EwxhDrgsINh9E5TsXSbx+lYzMTinG+D+vxN4BpGLRicckUIDN3bMVHGiHMpEDnJvooHcxApss5TlgSb2f0SVEoYnD40mdRga5cjMcWvOmcKAFfg0CulKH1uDTfdPF8Mq6hxxXeeW0eN10SretaBoKBIINldK45oE8bzmKdkz6bPe+hj+SyMoiO0LspFNq6anFp3zfaL+8T7MDUhIb7gxn5i1G6jPVCeyczvlbwplvme6g419x/KsDAydKUvz3iWGGZpWuNTyg2HI/tCmzTy5xG4ylL/FJHbryw2l/RUIH+uqHhBJt9wqql/ZiWN7B6af86oAIjkn0BqwJfEs5TeM6t+iniSM6lBlYvGh9HbaPBt1dggePdP665VrA/br/l+fLw+Pj6U6D99/jbH/vo9XdD+vFf);lineShape=1;" vertex="1" parent="jlvIZHqj3tA4NNaAW3DX-1">
          <mxGeometry x="503.74601610368563" y="13.836656669174772" width="329.7311593349473" height="352.63390299437856" as="geometry" />
        </mxCell>
        <mxCell id="jlvIZHqj3tA4NNaAW3DX-31" value="" style="shape=stencil(nVfLbttADPwaXQnue3lO0/8IEKc26tqB477+vnQFKSYlTYreZGlHFDkzJD2kh7f90+tuiPx2vZy/7n4enq/7IX0aYjyc9rvL4apXQ3oc0sPL+bL7cjl/Pz2Pv1+fbidvV9/OP25v+DXiYqRUbqjIv8c7IVCIf+98HgHHw8kCSjaAKFQRIFOxEUqkJgDQKVQDqJ1y2gbk5CPUQjVvA0qlZiOURqlvA5p+gBhALtQBoEcSGyFniiDp3qjKAlC2ARIpdP9JDSQthaRZQKcKyir62FUpUmUAEB9ByxrRJ4nnoUbiCj+JHdOVCgIU4mgAjSk2AAjEbAFYrb1SssS1hKURqHYPyKCsTbVpy9oC5QAAiSR4AwXAtL7PMV1xDlrE7jwtH0UoThqZEiBOc2guAhMD4rRKwQKyuhz0JeUhW2mo4ypwnDIdFgAG0hCeDHlnUQZllUzdRWhUkEWbZ7qEqS1sOs7KuxSYdGD2hqhMGXu0WX1rN0bakLro9zJxudX6HHPq0YAaU5zmxz8CWqFo69qZBFBdA3UbQRu6oJm1kKu2qgbKqlPRMXdHzTp1ecpxDpEmataToGTlqhZh0L6jbwJKdAI5s6+RDm6kJPZjPTG0z0KpusoUQNo8CeZ8p4TW60nBHq8UEWG+p6ZpJVgXxLSxzGsVVqjPVXsNGmvT4H4/juZs0K1wcR5LTZI7jzaF0LzUZv+snxc/ZBPeOXmxiUBqNbzYntXhSP6frfkjgF68L+kvh+Nx3PHvn/ulXm+NfwjS4x8=);lineShape=1;" vertex="1" parent="jlvIZHqj3tA4NNaAW3DX-1">
          <mxGeometry x="497.82649010510113" y="50.83700249141373" width="19.44544234805744" height="19.046572967595694" as="geometry" />
        </mxCell>
        <mxCell id="jlvIZHqj3tA4NNaAW3DX-32" value="" style="shape=stencil(nVvbch0nEPwavVIwAww8O85/uMpyrIpjuWTn9vcZorASzW4fO2/yMb0LzEzPde/0zdeP777c30n8+u3p8df7Px/ef/t4pz/diTx8/nj/9PDN/7rTt3f65sPj0/0vT4+/f37//O8v78bK8ddvj3+MJ/z1jKs5xDZQEv9+/qX30OO/v/z8DPj08Pk1IIYCgBZ6vQaUGrquAAvGADmUsgJqsE4AEqKsgBIqOUPuoeQVkIMkArCgAJBQjQBKKLYCYugMkENe39A635KGtl5rs5CFAiyuAN8kuVYHdAD4I5SeQeAMaW7yCvCfIkyAufKxM7hcV0mbhd4IoIa6aqvVkNgb/Hmr8lkOygA9KLxBQmHq7Yqw3pJFanGu3rUvgOrvJLrkBlTXN1Sb77wyUVt1qdZp5eeAtm2pBOWsUVddGsRDtlQl5LQChJKAPy/BGVIoRPl8xwa3FIMQwfklpvUMfg2dvaEFWXWpGOUll2taD+2SYcrnAFvlUEqI5JZc1XS9peJWTmjGAQZn4HKwFCIAEmUNB+AtRcqtDsgrwG3wBsDWa81t0sI5wB3Kyt5OC0YE5wBQbyceI4IzDQpnKByQkWacPOmhy3ZopTbtTCqramQnMralhh4ou2SIarQY8kr32X8hZ2iCFqc9ZHIGd1B1PbS2UIh6txwavMEoe7fNsau7mEIBtgpOS2hsS+7j1lvSTH2cA0QQkNiWMoY/qpS9h9+HN8jU3yvBtZWXNFGX5YAIgEijmXao2gRInxHUFUAA0CaPXL5hlbTY1N/LM6w2LZXbg4a4aqsU6rJccHnVJclcW+v0aAeAk0BrGMKJ0CDRw1qBM6Rpg+eA/ZYiNaCuSGSpUzL24D+tgkttuvpzQMVYI/EMxROYtN5SqqGxMxjqUirUph1QBAGJqMZ4w0pkyaNxYnEnZ1BqcSMJgzPI5MIrADj2lGbYeCW4sppoijR/6Bt7d5pkuSo1yCxpMuC6CsGPmweT2kFyR2jPGaNvYfTk/vP1huvdlXDPkCHao0o0aBuCjGkZVw4digdK7cZDjAiOhzoqj5IgvBUaP9vhM17Ws/N6RB9XekyUKOpORdPqrrKejM9PLDW0oOvzPTNkhY+MTOf2whLDiMltpLG8R72QbsdbBQCNuJ7VMCJWGPh6NQyzIw2lNKNzStPjnq93T6SwnsVFbq590x9yP67uAv571pVO17ujq6u8lOqzeyHw3jzJdsbHjJavjzMbfeGryHKQrZZCk9OKbNLo8iP/eSFzKtxZWXpZ3ohsFYuQfngWzHkEDb4rUd/i6yuuN8KF+/N5CK6YJPt6luj7eSF+UJqb6Qw8X8UbjJt1o8JMbcVVs+P6RnRTtugk05qXbMFJplybsJDoARlTt0P6r59PfPVOPZnKK57sn3FhRNc75EX3A7lJOsryF+vTJl8WTkbM33y90v337bzCuPDk+YnIdyv53Fxft/th+9GT57Pz7vbO73PnKy4vnXWR79QHRdd+Q98Euz439FkwVL1hL2lGOt9tj/v+mb1HLNuM9US+ceNzzlcRCx43+NDXb/tnifn/WA/7V5q7xC19FNrFiFhdHP7rh+4z0QJpxLqcr490/8gncVrchf5gQ4+maoIltka1ISPbGk3sCraQePmh4V0WGvaPyGXVzUyvPmWsnygtTSdDbhD6fNnq92787O7L5qtp2jVEiWkF278qVnMi7dJ42iKY1iWeFkH19DDmq7Qr4/PpesM039cTUyxb6ZTv39NSw/0Ia3DaZOJX98kacQmbJ5FWQWtGLo/UXPa+XaKteEvYPk2zAXu+vuDzeZnCtm6r0AJoS5hWK00zRxME2l1UH5rhCMhxwVdlrr4+v/DCoWAbtFJq7tuggs08+KrOCHzYZh58WR82WM8mXkYtFsuMjPz7VnR3X8QIcUzcACHeKLp3nC4ZtVsOwHRKZwPyCoClkEy76SnuEUqZMcXVK9pWdWflir6NZjigszJ9m+2XA2A0aHVJy9ZqoICCFc3UJ9lflbjBFgZ5MeUT3NLwluyWtqKO0wttULatyqrc/itOWgzCYIRUMPmRwgvjGasLThmMYpqiix2let6rgxboaB8yklS0UWcB5tVGVxZYO9IMcdzSuiVN1ORGN3BVbxWaszrRw0yNKk2KHYDt9ExreK5LqSGAtXBOAIXHvjaV+QBU2qTwW4JCofLhj9Gwh941Hy9pW9leeTLRtmzCQ0QWYbSIZ8iJvsH6No8ifETGJgsdAOUDLBUTqMyjBtu6gZkPTljeuld8bnTM1MAAi9EarCkmjbnRhoUDoICfO22BOgAcdYl88ki36ak0Xfc5QDB3LEKbrCbYih4jY3zcCsO9QvOvMQG2Cq5U2lcbfT7oW3ATrR0jrNL5+KFhrFEjb/VVHMKpvNldN7qvQoOTKtjvqHxo2XcM07W10JJ+acjelVPlydwob9mUjGTskiksNVQskxlv4bn2A1WO2TxyrW5fUKh3WmCSdpMH5hsjxbyLCof2hI7lV3lrK46xaHIGB+DweKJO0QHQ+BvxDatPFYxmxiAcH7yGfoM7YpZAjEltmGfvNB0YXA0z+Tytd+qFNK7zJMh1CbbUM1e+jEXUkWoyi6snnzqwCbBhogAwOsXmrAGhtCc5dAa5oI/zNIrOUVc0oAEgkq5bGNo7NdG6TbGN9JTEGjsZ986Hx8/OQEtEWwV2JMCMjAvmD53b9ODqTQ6sIVLL1oGLvA7o/qP9MAKr4Dc2lXGi5daxf/h7pNsA/+Pl86cPD58+PX899fr/8XMp/+n5Uyt9+w8=);lineShape=1;" vertex="1" parent="jlvIZHqj3tA4NNaAW3DX-1">
          <mxGeometry x="708.9772131297095" y="-0.39767253341369724" width="113.84701473420864" height="492.8034757187738" as="geometry" />
        </mxCell>
        <mxCell id="jlvIZHqj3tA4NNaAW3DX-33" value="" style="shape=stencil(lVfLctswDPwaXTHgmzyn6X9kJk7tqWtnHKdt/j5QVSYCJK3bmyxjBQLYBcAh3L3sH553g+eX6+X8fffr8HjdD+HL4P3htN9dDld5GsL9EO6ezpfdt8v59fQ4/X5+GC3Hpx/nn+MXfk84xxTiiPL8Nr0JxOHPi6+T/fFwmtl7phiUvffEEQAKMWsHgUrbBsjfvipAjFQZABr5ogApUvPbAPle0x5y7FGtAhKTTwpQPCUQQ6rE+kjVUwFZytlmqUTybhtQJInexvA3b6uAWijrI8UEs1Qb5WDrwADQHDWnAYEciKFFWzgBeJDWlilme6QECtfqwkPueVsHNIpNAyQNIAbHbCuXPDVAV3FRNJlSJp9hEEVHnRoFFEQhpzWdHRXAjZaI9ZFyoICO5BfsC7346wBpM3XhoQD21c6EWQyoC9Rs+T1mKQFAWgAyZJ8Aoub3WGnAvvohsDmZEEAKZySXYduQLLWFRhMIWjRqPUgdEFvDQhA3RJ0sW8e2gQDFcmlsTFhAzniolBC9m21M6YYemi1cSt3nPx5JJgAUUOl1ndGbUeFWAYgahaoOWiYK8lAqVU0N4S+DLOVGSWdJGnoDHjJT0q1y1j03B6/O6zgCgIKio6QBNUBBhExhkaaM1hPubWg2eCvoZD4u2Bdh63N1IQgsOef79z5WLNcH5TrAxuwCFBDbpDrpxdDe6e+3vnBtmNvd54a5N+KkBgrGVMwK0KfjRm6y/rpsemi9pWJS2TeOdfbYzVPWacT/PsE+zZFcsm29DAVcbZmYMghVxmkwoSLz/71Z3LaXh89rzNPheJxuQfP/7bVHXk1XpnD/Dg==);lineShape=1;" vertex="1" parent="jlvIZHqj3tA4NNaAW3DX-1">
          <mxGeometry x="692.9617117941707" y="47.96691079685604" width="34.96958742008064" height="24.488158117993294" as="geometry" />
        </mxCell>
        <mxCell id="jlvIZHqj3tA4NNaAW3DX-34" value="id: int" style="rounded=0;whiteSpace=wrap;html=1;fontFamily=Ubuntu;fontSource=https%3A%2F%2Ffonts.googleapis.com%2Fcss%3Ffamily%3DUbuntu;fontSize=14;fillColor=#f8cecc;strokeColor=#b85450;fillStyle=dots;" vertex="1" parent="jlvIZHqj3tA4NNaAW3DX-1">
          <mxGeometry x="420" y="80" width="140" height="30" as="geometry" />
        </mxCell>
        <mxCell id="jlvIZHqj3tA4NNaAW3DX-35" value="name: String" style="rounded=0;whiteSpace=wrap;html=1;fontFamily=Ubuntu;fontSource=https%3A%2F%2Ffonts.googleapis.com%2Fcss%3Ffamily%3DUbuntu;fontSize=14;fillColor=#f8cecc;strokeColor=#b85450;fillStyle=dots;" vertex="1" parent="jlvIZHqj3tA4NNaAW3DX-1">
          <mxGeometry x="420" y="110" width="140" height="30" as="geometry" />
        </mxCell>
        <mxCell id="jlvIZHqj3tA4NNaAW3DX-36" value="Student(int id, String name)" style="ellipse;whiteSpace=wrap;html=1;fontFamily=Ubuntu;fontSource=https%3A%2F%2Ffonts.googleapis.com%2Fcss%3Ffamily%3DUbuntu;fontSize=14;fillColor=#f8cecc;strokeColor=#b85450;fillStyle=dots;" vertex="1" parent="jlvIZHqj3tA4NNaAW3DX-1">
          <mxGeometry x="430" y="150.15" width="120" height="80" as="geometry" />
        </mxCell>
        <mxCell id="jlvIZHqj3tA4NNaAW3DX-37" value="" style="rounded=0;whiteSpace=wrap;html=1;fontFamily=Ubuntu;fontSource=https%3A%2F%2Ffonts.googleapis.com%2Fcss%3Ffamily%3DUbuntu;fontSize=14;movable=1;resizable=1;rotatable=1;deletable=1;editable=1;locked=0;connectable=1;" vertex="1" parent="jlvIZHqj3tA4NNaAW3DX-1">
          <mxGeometry x="320" y="370" width="140" height="200" as="geometry" />
        </mxCell>
        <mxCell id="jlvIZHqj3tA4NNaAW3DX-38" style="edgeStyle=orthogonalEdgeStyle;rounded=0;orthogonalLoop=1;jettySize=auto;html=1;entryX=0.4;entryY=1;entryDx=0;entryDy=0;entryPerimeter=0;dashed=1;" edge="1" parent="jlvIZHqj3tA4NNaAW3DX-1" source="jlvIZHqj3tA4NNaAW3DX-39" target="jlvIZHqj3tA4NNaAW3DX-29">
          <mxGeometry relative="1" as="geometry" />
        </mxCell>
        <mxCell id="jlvIZHqj3tA4NNaAW3DX-39" value="0xAF13" style="text;html=1;strokeColor=#6c8ebf;fillColor=#dae8fc;align=center;verticalAlign=middle;whiteSpace=wrap;rounded=0;fontFamily=Ubuntu;fontSource=https%3A%2F%2Ffonts.googleapis.com%2Fcss%3Ffamily%3DUbuntu;fontSize=14;" vertex="1" parent="jlvIZHqj3tA4NNaAW3DX-1">
          <mxGeometry x="320" y="340" width="60" height="30" as="geometry" />
        </mxCell>
        <mxCell id="jlvIZHqj3tA4NNaAW3DX-40" value="id: int = 1" style="rounded=0;whiteSpace=wrap;html=1;fontFamily=Ubuntu;fontSource=https%3A%2F%2Ffonts.googleapis.com%2Fcss%3Ffamily%3DUbuntu;fontSize=14;fillStyle=auto;" vertex="1" parent="jlvIZHqj3tA4NNaAW3DX-1">
          <mxGeometry x="320" y="370" width="140" height="30" as="geometry" />
        </mxCell>
        <mxCell id="jlvIZHqj3tA4NNaAW3DX-41" value="name: String = &quot;Kasun&quot;" style="rounded=0;whiteSpace=wrap;html=1;fontFamily=Ubuntu;fontSource=https%3A%2F%2Ffonts.googleapis.com%2Fcss%3Ffamily%3DUbuntu;fontSize=14;fillStyle=auto;" vertex="1" parent="jlvIZHqj3tA4NNaAW3DX-1">
          <mxGeometry x="320" y="400" width="140" height="30" as="geometry" />
        </mxCell>
        <mxCell id="jlvIZHqj3tA4NNaAW3DX-42" value="Student(int id, String name)" style="ellipse;whiteSpace=wrap;html=1;fontFamily=Ubuntu;fontSource=https%3A%2F%2Ffonts.googleapis.com%2Fcss%3Ffamily%3DUbuntu;fontSize=14;fillStyle=auto;" vertex="1" parent="jlvIZHqj3tA4NNaAW3DX-1">
          <mxGeometry x="330" y="440.15" width="120" height="80" as="geometry" />
        </mxCell>
        <mxCell id="cvZqhWEClibMEL1c4xaN-0" value="" style="rounded=0;whiteSpace=wrap;html=1;fillColor=#dae8fc;strokeColor=#6c8ebf;strokeWidth=6;" vertex="1" parent="jlvIZHqj3tA4NNaAW3DX-1">
          <mxGeometry x="40" y="300" width="160" height="110" as="geometry" />
        </mxCell>
        <mxCell id="cvZqhWEClibMEL1c4xaN-1" value="0xAF13.Student(int, String)" style="text;html=1;strokeColor=none;fillColor=none;align=center;verticalAlign=middle;whiteSpace=wrap;rounded=0;fontFamily=Ubuntu;fontSource=https%3A%2F%2Ffonts.googleapis.com%2Fcss%3Ffamily%3DUbuntu;fontSize=16;" vertex="1" parent="jlvIZHqj3tA4NNaAW3DX-1">
          <mxGeometry x="-200" y="350" width="230" height="30" as="geometry" />
        </mxCell>
        <mxCell id="cvZqhWEClibMEL1c4xaN-3" style="edgeStyle=orthogonalEdgeStyle;rounded=0;orthogonalLoop=1;jettySize=auto;html=1;entryX=0;entryY=0.75;entryDx=0;entryDy=0;dashed=1;" edge="1" parent="jlvIZHqj3tA4NNaAW3DX-1" source="cvZqhWEClibMEL1c4xaN-2" target="jlvIZHqj3tA4NNaAW3DX-39">
          <mxGeometry relative="1" as="geometry">
            <Array as="points">
              <mxPoint x="260" y="310" />
              <mxPoint x="260" y="363" />
            </Array>
          </mxGeometry>
        </mxCell>
        <mxCell id="cvZqhWEClibMEL1c4xaN-2" value="this = 0xAF13" style="rounded=0;whiteSpace=wrap;html=1;fontFamily=Ubuntu;fontSource=https%3A%2F%2Ffonts.googleapis.com%2Fcss%3Ffamily%3DUbuntu;fontSize=16;" vertex="1" parent="jlvIZHqj3tA4NNaAW3DX-1">
          <mxGeometry x="40" y="302.5" width="160" height="35" as="geometry" />
        </mxCell>
        <mxCell id="cvZqhWEClibMEL1c4xaN-4" value="int id = 1" style="rounded=0;whiteSpace=wrap;html=1;fontFamily=Ubuntu;fontSource=https%3A%2F%2Ffonts.googleapis.com%2Fcss%3Ffamily%3DUbuntu;fontSize=16;" vertex="1" parent="jlvIZHqj3tA4NNaAW3DX-1">
          <mxGeometry x="40" y="337.5" width="160" height="35" as="geometry" />
        </mxCell>
        <mxCell id="cvZqhWEClibMEL1c4xaN-5" value="String name = &quot;Kasun&quot;" style="rounded=0;whiteSpace=wrap;html=1;fontFamily=Ubuntu;fontSource=https%3A%2F%2Ffonts.googleapis.com%2Fcss%3Ffamily%3DUbuntu;fontSize=16;" vertex="1" parent="jlvIZHqj3tA4NNaAW3DX-1">
          <mxGeometry x="40" y="374" width="160" height="35" as="geometry" />
        </mxCell>
      </root>
    </mxGraphModel>
  </diagram>
  <diagram name="Page-4" id="8tC6K1lECFH2OODKGHlB">
    <mxGraphModel dx="1980" dy="595" grid="1" gridSize="10" guides="1" tooltips="1" connect="1" arrows="1" fold="1" page="1" pageScale="1" pageWidth="1100" pageHeight="850" math="0" shadow="0">
      <root>
        <mxCell id="7Ob9awnKBekJb-dhLCCk-0" />
        <mxCell id="7Ob9awnKBekJb-dhLCCk-1" parent="7Ob9awnKBekJb-dhLCCk-0" />
        <mxCell id="7Ob9awnKBekJb-dhLCCk-2" value="" style="rounded=0;whiteSpace=wrap;html=1;fontFamily=Ubuntu;fontSource=https%3A%2F%2Ffonts.googleapis.com%2Fcss%3Ffamily%3DUbuntu;fontSize=14;movable=0;resizable=0;rotatable=0;deletable=0;editable=0;locked=1;connectable=0;" vertex="1" parent="7Ob9awnKBekJb-dhLCCk-1">
          <mxGeometry x="40" y="40" width="160" height="560" as="geometry" />
        </mxCell>
        <mxCell id="7Ob9awnKBekJb-dhLCCk-3" value="" style="rounded=0;whiteSpace=wrap;html=1;fontFamily=Ubuntu;fontSource=https%3A%2F%2Ffonts.googleapis.com%2Fcss%3Ffamily%3DUbuntu;fontSize=14;movable=0;resizable=0;rotatable=0;deletable=0;editable=0;locked=1;connectable=0;" vertex="1" parent="7Ob9awnKBekJb-dhLCCk-1">
          <mxGeometry x="200" y="40" width="560" height="280" as="geometry" />
        </mxCell>
        <mxCell id="7Ob9awnKBekJb-dhLCCk-4" value="" style="rounded=0;whiteSpace=wrap;html=1;fontFamily=Ubuntu;fontSource=https%3A%2F%2Ffonts.googleapis.com%2Fcss%3Ffamily%3DUbuntu;fontSize=14;movable=0;resizable=0;rotatable=0;deletable=0;editable=0;locked=1;connectable=0;" vertex="1" parent="7Ob9awnKBekJb-dhLCCk-1">
          <mxGeometry x="200" y="320" width="560" height="280" as="geometry" />
        </mxCell>
        <mxCell id="7Ob9awnKBekJb-dhLCCk-5" value="Demo6.class" style="rounded=0;whiteSpace=wrap;html=1;fontFamily=Ubuntu;fontSource=https%3A%2F%2Ffonts.googleapis.com%2Fcss%3Ffamily%3DUbuntu;fontSize=14;movable=0;resizable=0;rotatable=0;deletable=0;editable=0;locked=1;connectable=0;" vertex="1" parent="7Ob9awnKBekJb-dhLCCk-1">
          <mxGeometry x="780" y="500" width="100" height="100" as="geometry" />
        </mxCell>
        <mxCell id="7Ob9awnKBekJb-dhLCCk-6" value="Student.class" style="rounded=0;whiteSpace=wrap;html=1;fontFamily=Ubuntu;fontSource=https%3A%2F%2Ffonts.googleapis.com%2Fcss%3Ffamily%3DUbuntu;fontSize=14;movable=0;resizable=0;rotatable=0;deletable=0;editable=0;locked=1;connectable=0;" vertex="1" parent="7Ob9awnKBekJb-dhLCCk-1">
          <mxGeometry x="800" y="375" width="100" height="100" as="geometry" />
        </mxCell>
        <mxCell id="7Ob9awnKBekJb-dhLCCk-7" value="Application Class Loader" style="shape=umlActor;verticalLabelPosition=bottom;verticalAlign=top;html=1;outlineConnect=0;fontFamily=Ubuntu;fontSource=https%3A%2F%2Ffonts.googleapis.com%2Fcss%3Ffamily%3DUbuntu;align=left;movable=0;resizable=0;rotatable=0;deletable=0;editable=0;locked=1;connectable=0;" vertex="1" parent="7Ob9awnKBekJb-dhLCCk-1">
          <mxGeometry x="815" y="40" width="30" height="60" as="geometry" />
        </mxCell>
        <mxCell id="7Ob9awnKBekJb-dhLCCk-8" value="STACK" style="text;html=1;strokeColor=none;fillColor=none;align=center;verticalAlign=middle;whiteSpace=wrap;rounded=0;fontFamily=Ubuntu;fontSource=https%3A%2F%2Ffonts.googleapis.com%2Fcss%3Ffamily%3DUbuntu;fontSize=26;fontColor=#CCCCCC;movable=0;resizable=0;rotatable=0;deletable=0;editable=0;locked=1;connectable=0;" vertex="1" parent="7Ob9awnKBekJb-dhLCCk-1">
          <mxGeometry x="60" y="300" width="120" height="50" as="geometry" />
        </mxCell>
        <mxCell id="7Ob9awnKBekJb-dhLCCk-9" value="METHOD AREA" style="text;html=1;strokeColor=none;fillColor=none;align=center;verticalAlign=middle;whiteSpace=wrap;rounded=0;fontFamily=Ubuntu;fontSource=https%3A%2F%2Ffonts.googleapis.com%2Fcss%3Ffamily%3DUbuntu;fontSize=26;fontColor=#CCCCCC;movable=0;resizable=0;rotatable=0;deletable=0;editable=0;locked=1;connectable=0;" vertex="1" parent="7Ob9awnKBekJb-dhLCCk-1">
          <mxGeometry x="420" y="140" width="120" height="50" as="geometry" />
        </mxCell>
        <mxCell id="7Ob9awnKBekJb-dhLCCk-10" value="HEAP" style="text;html=1;strokeColor=none;fillColor=none;align=center;verticalAlign=middle;whiteSpace=wrap;rounded=0;fontFamily=Ubuntu;fontSource=https%3A%2F%2Ffonts.googleapis.com%2Fcss%3Ffamily%3DUbuntu;fontSize=26;fontColor=#CCCCCC;movable=0;resizable=0;rotatable=0;deletable=0;editable=0;locked=1;connectable=0;" vertex="1" parent="7Ob9awnKBekJb-dhLCCk-1">
          <mxGeometry x="420" y="425" width="120" height="50" as="geometry" />
        </mxCell>
        <mxCell id="7Ob9awnKBekJb-dhLCCk-11" value="" style="rounded=0;whiteSpace=wrap;html=1;fontFamily=Ubuntu;fontSource=https%3A%2F%2Ffonts.googleapis.com%2Fcss%3Ffamily%3DUbuntu;fontSize=14;movable=1;resizable=1;rotatable=1;deletable=1;editable=1;locked=0;connectable=1;" vertex="1" parent="7Ob9awnKBekJb-dhLCCk-1">
          <mxGeometry x="600" y="80" width="140" height="200" as="geometry" />
        </mxCell>
        <mxCell id="7Ob9awnKBekJb-dhLCCk-12" value="0xAF10" style="text;html=1;strokeColor=#6c8ebf;fillColor=#dae8fc;align=center;verticalAlign=middle;whiteSpace=wrap;rounded=0;fontFamily=Ubuntu;fontSource=https%3A%2F%2Ffonts.googleapis.com%2Fcss%3Ffamily%3DUbuntu;fontSize=14;" vertex="1" parent="7Ob9awnKBekJb-dhLCCk-1">
          <mxGeometry x="600" y="50" width="60" height="30" as="geometry" />
        </mxCell>
        <mxCell id="7Ob9awnKBekJb-dhLCCk-13" value="Demo6 Class Object" style="text;html=1;strokeColor=#6c8ebf;fillColor=#dae8fc;align=center;verticalAlign=middle;whiteSpace=wrap;rounded=0;fontFamily=Ubuntu;fontSource=https%3A%2F%2Ffonts.googleapis.com%2Fcss%3Ffamily%3DUbuntu;fontSize=14;" vertex="1" parent="7Ob9awnKBekJb-dhLCCk-1">
          <mxGeometry x="600" y="280" width="140" height="30" as="geometry" />
        </mxCell>
        <mxCell id="7Ob9awnKBekJb-dhLCCk-14" value="Demo6()" style="ellipse;whiteSpace=wrap;html=1;fontFamily=Ubuntu;fontSource=https%3A%2F%2Ffonts.googleapis.com%2Fcss%3Ffamily%3DUbuntu;fontSize=14;fillColor=#f8cecc;strokeColor=#b85450;fillStyle=dots;" vertex="1" parent="7Ob9awnKBekJb-dhLCCk-1">
          <mxGeometry x="610" y="90" width="120" height="80" as="geometry" />
        </mxCell>
        <mxCell id="7Ob9awnKBekJb-dhLCCk-15" value="psvm()" style="ellipse;whiteSpace=wrap;html=1;fontFamily=Ubuntu;fontSource=https%3A%2F%2Ffonts.googleapis.com%2Fcss%3Ffamily%3DUbuntu;fontSize=14;" vertex="1" parent="7Ob9awnKBekJb-dhLCCk-1">
          <mxGeometry x="610" y="180" width="120" height="80" as="geometry" />
        </mxCell>
        <mxCell id="7Ob9awnKBekJb-dhLCCk-16" value="" style="rounded=0;whiteSpace=wrap;html=1;fillColor=#d5e8d4;strokeColor=#82b366;strokeWidth=6;" vertex="1" parent="7Ob9awnKBekJb-dhLCCk-1">
          <mxGeometry x="40" y="410" width="160" height="190" as="geometry" />
        </mxCell>
        <mxCell id="7Ob9awnKBekJb-dhLCCk-17" value="Demo6 (0xAF10). main()" style="text;html=1;strokeColor=none;fillColor=none;align=center;verticalAlign=middle;whiteSpace=wrap;rounded=0;fontFamily=Ubuntu;fontSource=https%3A%2F%2Ffonts.googleapis.com%2Fcss%3Ffamily%3DUbuntu;fontSize=16;" vertex="1" parent="7Ob9awnKBekJb-dhLCCk-1">
          <mxGeometry x="-160" y="520" width="190" height="30" as="geometry" />
        </mxCell>
        <mxCell id="7Ob9awnKBekJb-dhLCCk-18" style="edgeStyle=orthogonalEdgeStyle;rounded=0;orthogonalLoop=1;jettySize=auto;html=1;entryX=0;entryY=0.25;entryDx=0;entryDy=0;dashed=1;" edge="1" parent="7Ob9awnKBekJb-dhLCCk-1" source="7Ob9awnKBekJb-dhLCCk-19" target="7Ob9awnKBekJb-dhLCCk-12">
          <mxGeometry relative="1" as="geometry">
            <Array as="points">
              <mxPoint x="210" y="428" />
              <mxPoint x="210" y="58" />
            </Array>
          </mxGeometry>
        </mxCell>
        <mxCell id="7Ob9awnKBekJb-dhLCCk-19" value="RCP = 0xAF10" style="rounded=0;whiteSpace=wrap;html=1;fontFamily=Ubuntu;fontSource=https%3A%2F%2Ffonts.googleapis.com%2Fcss%3Ffamily%3DUbuntu;fontSize=16;" vertex="1" parent="7Ob9awnKBekJb-dhLCCk-1">
          <mxGeometry x="40" y="410" width="160" height="35" as="geometry" />
        </mxCell>
        <mxCell id="7Ob9awnKBekJb-dhLCCk-20" style="edgeStyle=orthogonalEdgeStyle;rounded=0;orthogonalLoop=1;jettySize=auto;html=1;dashed=1;" edge="1" parent="7Ob9awnKBekJb-dhLCCk-1" source="7Ob9awnKBekJb-dhLCCk-21" target="7Ob9awnKBekJb-dhLCCk-22">
          <mxGeometry relative="1" as="geometry" />
        </mxCell>
        <mxCell id="7Ob9awnKBekJb-dhLCCk-21" value="String[] args = 0xAF11" style="rounded=0;whiteSpace=wrap;html=1;fontFamily=Ubuntu;fontSource=https%3A%2F%2Ffonts.googleapis.com%2Fcss%3Ffamily%3DUbuntu;fontSize=16;" vertex="1" parent="7Ob9awnKBekJb-dhLCCk-1">
          <mxGeometry x="40" y="445" width="160" height="45" as="geometry" />
        </mxCell>
        <mxCell id="7Ob9awnKBekJb-dhLCCk-22" value="0xAF11" style="text;html=1;strokeColor=#6c8ebf;fillColor=#dae8fc;align=center;verticalAlign=middle;whiteSpace=wrap;rounded=0;fontFamily=Ubuntu;fontSource=https%3A%2F%2Ffonts.googleapis.com%2Fcss%3Ffamily%3DUbuntu;fontSize=14;" vertex="1" parent="7Ob9awnKBekJb-dhLCCk-1">
          <mxGeometry x="210" y="520" width="60" height="30" as="geometry" />
        </mxCell>
        <mxCell id="7Ob9awnKBekJb-dhLCCk-23" value="" style="rounded=0;whiteSpace=wrap;html=1;" vertex="1" parent="7Ob9awnKBekJb-dhLCCk-1">
          <mxGeometry x="210" y="550" width="10" height="20" as="geometry" />
        </mxCell>
        <mxCell id="c3FGBrG1KRDEIAV1_Qne-0" style="edgeStyle=orthogonalEdgeStyle;rounded=0;orthogonalLoop=1;jettySize=auto;html=1;entryX=0;entryY=0.5;entryDx=0;entryDy=0;" edge="1" parent="7Ob9awnKBekJb-dhLCCk-1" source="7Ob9awnKBekJb-dhLCCk-24" target="7Ob9awnKBekJb-dhLCCk-39">
          <mxGeometry relative="1" as="geometry" />
        </mxCell>
        <mxCell id="7Ob9awnKBekJb-dhLCCk-24" value="Student s1 = 0xAF13" style="rounded=0;whiteSpace=wrap;html=1;fontFamily=Ubuntu;fontSource=https%3A%2F%2Ffonts.googleapis.com%2Fcss%3Ffamily%3DUbuntu;fontSize=16;" vertex="1" parent="7Ob9awnKBekJb-dhLCCk-1">
          <mxGeometry x="40" y="490" width="160" height="35" as="geometry" />
        </mxCell>
        <mxCell id="7Ob9awnKBekJb-dhLCCk-25" value="Student s2" style="rounded=0;whiteSpace=wrap;html=1;fontFamily=Ubuntu;fontSource=https%3A%2F%2Ffonts.googleapis.com%2Fcss%3Ffamily%3DUbuntu;fontSize=16;" vertex="1" parent="7Ob9awnKBekJb-dhLCCk-1">
          <mxGeometry x="40" y="525" width="160" height="35" as="geometry" />
        </mxCell>
        <mxCell id="7Ob9awnKBekJb-dhLCCk-26" value="Student s3" style="rounded=0;whiteSpace=wrap;html=1;fontFamily=Ubuntu;fontSource=https%3A%2F%2Ffonts.googleapis.com%2Fcss%3Ffamily%3DUbuntu;fontSize=16;" vertex="1" parent="7Ob9awnKBekJb-dhLCCk-1">
          <mxGeometry x="40" y="560" width="160" height="35" as="geometry" />
        </mxCell>
        <mxCell id="7Ob9awnKBekJb-dhLCCk-27" value="" style="rounded=0;whiteSpace=wrap;html=1;fontFamily=Ubuntu;fontSource=https%3A%2F%2Ffonts.googleapis.com%2Fcss%3Ffamily%3DUbuntu;fontSize=14;movable=1;resizable=1;rotatable=1;deletable=1;editable=1;locked=0;connectable=1;" vertex="1" parent="7Ob9awnKBekJb-dhLCCk-1">
          <mxGeometry x="420" y="80" width="140" height="200" as="geometry" />
        </mxCell>
        <mxCell id="7Ob9awnKBekJb-dhLCCk-28" value="0xAF12" style="text;html=1;strokeColor=#6c8ebf;fillColor=#dae8fc;align=center;verticalAlign=middle;whiteSpace=wrap;rounded=0;fontFamily=Ubuntu;fontSource=https%3A%2F%2Ffonts.googleapis.com%2Fcss%3Ffamily%3DUbuntu;fontSize=14;" vertex="1" parent="7Ob9awnKBekJb-dhLCCk-1">
          <mxGeometry x="420" y="50" width="60" height="30" as="geometry" />
        </mxCell>
        <mxCell id="7Ob9awnKBekJb-dhLCCk-29" value="Student Class Object" style="text;html=1;strokeColor=#6c8ebf;fillColor=#dae8fc;align=center;verticalAlign=middle;whiteSpace=wrap;rounded=0;fontFamily=Ubuntu;fontSource=https%3A%2F%2Ffonts.googleapis.com%2Fcss%3Ffamily%3DUbuntu;fontSize=14;" vertex="1" parent="7Ob9awnKBekJb-dhLCCk-1">
          <mxGeometry x="420" y="280" width="140" height="30" as="geometry" />
        </mxCell>
        <mxCell id="7Ob9awnKBekJb-dhLCCk-30" value="" style="shape=stencil(lVvZchw3DPwavbIIguez4/yHqyzHqiiSS7Zz/H3AKJwdNmd6pCo/yLvADA8c3QD2Tj98//rp2/1d8N9/vDz/fv/Xw+cfX+/0l7sQHp6+3r88/LC/7vTjnX748vxy/9vL88+nz6////apS/a//nj+sz/h71e91pyp9H/+n+2TWv775NdXhceHp71CdSHPCtXVRhSKS4uCZwrZ1TQrFOeFKojOCslltofkNM4K6hpbUlz2EPiS1JUyKdTmSiUKwTVQKC5wheBnhW2RxwriIiiIK2wP3uVZoVTX/LlC3+J8SiU7r0TBnjcbX1G6aVMQmRVskeTi7BB1No1s9ktMo2aXZtPIifpDTXjTWV1ke0jjTDYFcT4Qheh0PqVUx66OFXScyaZg/sAVwIGSmSMxjRpcmU0jeSeRKsT54qLdDH/D/4awKUSX+RvCvOkYrpaU5mNVi3xcoc2b1uIq8Tg7Vp1NQzONfKaAb4jcluzr2VpVucdF10BBuAOl5Q3eRWatCX06tBGpzjxO55sOlh8SVajzKYXMrdUi6Wx8wZyW3XQZ7rIp2EGzU7IVzzcdlBtfdQn2ICOOvDFUBu+ULak5nd8gjYeZ5vJ8SmLHwO5hAwqbQh7vPEsofnZRMXNkOc4j1hALbSzH2ZmAQqDWagqQFEUGIDp9w+wP4qm1moLM5l25sdqpzvLFFX7Pcd5ydpmnUIgxaaT5M3lwnshzSRlmuQUMV7g3RwV5z9azYLcw0uNZxBOwUr4ei/IJ5OnzZXEbigyr2cN8/t5V8nzDXDGAPAOSBrliw+cz+bi4jBO2Hlm8fiCmQ/nchnvc7kuI/RjcahnkWZLNAbOBDmxyKJ+WMBfHB8fyGSNEcomcZzIEO+/XECXx37TEuELPMxYEqHUs8Fg+jUS0URd6/lGH+d7kC5MXhLMWEIVkMkNZEBBNIZEdGMqKiwKjd7pAkK5AbMhQFsQsU4jkEnSDx/sswN5g5As4rUskCtnX7T1Zw75OCvKByZeFSFEr6kliPqFMAZE5VZitLlGr7k4+n0+k2KMHHfT6SqzUgqBgVmJIXJYsGcYFHssbVAKTo1RZlqgiFOhLwjKNUFBtwEqWrMSeH0b9443yB1lAmLxHlmxZlaEm5JdCg3QdIWp3+iyHLQSC1gQKRsRAmWjGkkOgtaWEzFgpvooIDyOlARFZAM9einFtI2cn4hB1ynD7E3HB1CUkaIYBdG4x05NrCmuIbfTpiAs5EJMlqXCblGEkOyrCgIwgDpZIgadgccHkEzEcwYhs8qz8J4jbTJ6VR/wIwHtyR56/VBcv5aFMcLkeWcgmA4ZbAt+fJzl/P2jK/r7o+iGKmDxLQQtPMO7L6uwecafJM+Dm0V06t6b7zRXlE3FHv0AkpUB4ox379VB5qPf18yH2sJS/+/lTf4mLv7DgdvT8SP0d188hz3o+caSxN55/vLCfvMQT7o9oP5EWylf7jJSIr/Yfqf0c+RfLXUf+y3jL++UxvyiF5H6xN6G4YaM0+8oVsTd/QIou7HOWb9TdZaWl3JrrbP2FJqOAJDnTamnA3JsGvTjBJWA6iZb0dCx1V3Ega49YcAg0rqVR7tthWSKesYshlOoWRJtCS7YVg5ofbcoT2A61SM67Oy0PIB8ZJBFEhJ6avCwX6zlLsQiv+HyWIhLGQN4bMdaXsTZX2PoL1sKEr6cNHnOTr8yr/CADO5bLWL1gTlG6nv71vJ5IqyTdVZDcUAifMScmXiUpWDXItLZu5r/U4il78si2KrVPNXsOIM9qtaq43zZIwFldKy21PMbP7PhgkGIUw08rcx7l2X6NwGEtktln9IMx3eRZlSQGjJ2NBvIY0Z4rTYm9Zw0TERRipwWTZAqR0kEiYvacMmKMSKtOqa29GVYnyWEgrl3VjKwnL7MQgRL8vPiX0PhZBOs8F72TiLDBU0jYeycYz2kvpCJn97x35bGX5nlLVsb2duvh8wMB80tiZbOI9+tpP7Ym9EehkLwW9PeLXt0y3qMUYteGmDzyrnsbjOPmX4Gspzd7sZfDim0mXxDVsnzRBDlOpfGwrTUcbkBdAQCBDBp2qgAsh0MCU8CyiVJM0/zi84mPA/pBJDaFrWV8emvwhkKZcp9LgFO6GFlZytPd0XiTHhyzQynepQd+ZK6gbNaoYpPMfIHOuFS8ODNu2rheWhy9icS9X+ANF3NrGUsQPd/zYT3If8o7gxbAgDQbBGtsScnJbHyqfH4w4uiQgTA6YLV0ajTzNyj6g8EwxhDrgsINh9E5TsXSbx+lYzMTinG+D+vxN4BpGLRicckUIDN3bMVHGiHMpEDnJvooHcxApss5TlgSb2f0SVEoYnD40mdRga5cjMcWvOmcKAFfg0CulKH1uDTfdPF8Mq6hxxXeeW0eN10SretaBoKBIINldK45oE8bzmKdkz6bPe+hj+SyMoiO0LspFNq6anFp3zfaL+8T7MDUhIb7gxn5i1G6jPVCeyczvlbwplvme6g419x/KsDAydKUvz3iWGGZpWuNTyg2HI/tCmzTy5xG4ylL/FJHbryw2l/RUIH+uqHhBJt9wqql/ZiWN7B6af86oAIjkn0BqwJfEs5TeM6t+iniSM6lBlYvGh9HbaPBt1dggePdP665VrA/br/l+fLw+Pj6U6D99/jbH/vo9XdD+vFf);lineShape=1;" vertex="1" parent="7Ob9awnKBekJb-dhLCCk-1">
          <mxGeometry x="503.74601610368563" y="13.836656669174772" width="329.7311593349473" height="352.63390299437856" as="geometry" />
        </mxCell>
        <mxCell id="7Ob9awnKBekJb-dhLCCk-31" value="" style="shape=stencil(nVfLbttADPwaXQnue3lO0/8IEKc26tqB477+vnQFKSYlTYreZGlHFDkzJD2kh7f90+tuiPx2vZy/7n4enq/7IX0aYjyc9rvL4apXQ3oc0sPL+bL7cjl/Pz2Pv1+fbidvV9/OP25v+DXiYqRUbqjIv8c7IVCIf+98HgHHw8kCSjaAKFQRIFOxEUqkJgDQKVQDqJ1y2gbk5CPUQjVvA0qlZiOURqlvA5p+gBhALtQBoEcSGyFniiDp3qjKAlC2ARIpdP9JDSQthaRZQKcKyir62FUpUmUAEB9ByxrRJ4nnoUbiCj+JHdOVCgIU4mgAjSk2AAjEbAFYrb1SssS1hKURqHYPyKCsTbVpy9oC5QAAiSR4AwXAtL7PMV1xDlrE7jwtH0UoThqZEiBOc2guAhMD4rRKwQKyuhz0JeUhW2mo4ypwnDIdFgAG0hCeDHlnUQZllUzdRWhUkEWbZ7qEqS1sOs7KuxSYdGD2hqhMGXu0WX1rN0bakLro9zJxudX6HHPq0YAaU5zmxz8CWqFo69qZBFBdA3UbQRu6oJm1kKu2qgbKqlPRMXdHzTp1ecpxDpEmataToGTlqhZh0L6jbwJKdAI5s6+RDm6kJPZjPTG0z0KpusoUQNo8CeZ8p4TW60nBHq8UEWG+p6ZpJVgXxLSxzGsVVqjPVXsNGmvT4H4/juZs0K1wcR5LTZI7jzaF0LzUZv+snxc/ZBPeOXmxiUBqNbzYntXhSP6frfkjgF68L+kvh+Nx3PHvn/ulXm+NfwjS4x8=);lineShape=1;" vertex="1" parent="7Ob9awnKBekJb-dhLCCk-1">
          <mxGeometry x="497.82649010510113" y="50.83700249141373" width="19.44544234805744" height="19.046572967595694" as="geometry" />
        </mxCell>
        <mxCell id="7Ob9awnKBekJb-dhLCCk-32" value="" style="shape=stencil(nVvbch0nEPwavVIwAww8O85/uMpyrIpjuWTn9vcZorASzW4fO2/yMb0LzEzPde/0zdeP777c30n8+u3p8df7Px/ef/t4pz/diTx8/nj/9PDN/7rTt3f65sPj0/0vT4+/f37//O8v78bK8ddvj3+MJ/z1jKs5xDZQEv9+/qX30OO/v/z8DPj08Pk1IIYCgBZ6vQaUGrquAAvGADmUsgJqsE4AEqKsgBIqOUPuoeQVkIMkArCgAJBQjQBKKLYCYugMkENe39A635KGtl5rs5CFAiyuAN8kuVYHdAD4I5SeQeAMaW7yCvCfIkyAufKxM7hcV0mbhd4IoIa6aqvVkNgb/Hmr8lkOygA9KLxBQmHq7Yqw3pJFanGu3rUvgOrvJLrkBlTXN1Sb77wyUVt1qdZp5eeAtm2pBOWsUVddGsRDtlQl5LQChJKAPy/BGVIoRPl8xwa3FIMQwfklpvUMfg2dvaEFWXWpGOUll2taD+2SYcrnAFvlUEqI5JZc1XS9peJWTmjGAQZn4HKwFCIAEmUNB+AtRcqtDsgrwG3wBsDWa81t0sI5wB3Kyt5OC0YE5wBQbyceI4IzDQpnKByQkWacPOmhy3ZopTbtTCqramQnMralhh4ou2SIarQY8kr32X8hZ2iCFqc9ZHIGd1B1PbS2UIh6txwavMEoe7fNsau7mEIBtgpOS2hsS+7j1lvSTH2cA0QQkNiWMoY/qpS9h9+HN8jU3yvBtZWXNFGX5YAIgEijmXao2gRInxHUFUAA0CaPXL5hlbTY1N/LM6w2LZXbg4a4aqsU6rJccHnVJclcW+v0aAeAk0BrGMKJ0CDRw1qBM6Rpg+eA/ZYiNaCuSGSpUzL24D+tgkttuvpzQMVYI/EMxROYtN5SqqGxMxjqUirUph1QBAGJqMZ4w0pkyaNxYnEnZ1BqcSMJgzPI5MIrADj2lGbYeCW4sppoijR/6Bt7d5pkuSo1yCxpMuC6CsGPmweT2kFyR2jPGaNvYfTk/vP1huvdlXDPkCHao0o0aBuCjGkZVw4digdK7cZDjAiOhzoqj5IgvBUaP9vhM17Ws/N6RB9XekyUKOpORdPqrrKejM9PLDW0oOvzPTNkhY+MTOf2whLDiMltpLG8R72QbsdbBQCNuJ7VMCJWGPh6NQyzIw2lNKNzStPjnq93T6SwnsVFbq590x9yP67uAv571pVO17ujq6u8lOqzeyHw3jzJdsbHjJavjzMbfeGryHKQrZZCk9OKbNLo8iP/eSFzKtxZWXpZ3ohsFYuQfngWzHkEDb4rUd/i6yuuN8KF+/N5CK6YJPt6luj7eSF+UJqb6Qw8X8UbjJt1o8JMbcVVs+P6RnRTtugk05qXbMFJplybsJDoARlTt0P6r59PfPVOPZnKK57sn3FhRNc75EX3A7lJOsryF+vTJl8WTkbM33y90v337bzCuPDk+YnIdyv53Fxft/th+9GT57Pz7vbO73PnKy4vnXWR79QHRdd+Q98Euz439FkwVL1hL2lGOt9tj/v+mb1HLNuM9US+ceNzzlcRCx43+NDXb/tnifn/WA/7V5q7xC19FNrFiFhdHP7rh+4z0QJpxLqcr490/8gncVrchf5gQ4+maoIltka1ISPbGk3sCraQePmh4V0WGvaPyGXVzUyvPmWsnygtTSdDbhD6fNnq92787O7L5qtp2jVEiWkF278qVnMi7dJ42iKY1iWeFkH19DDmq7Qr4/PpesM039cTUyxb6ZTv39NSw/0Ia3DaZOJX98kacQmbJ5FWQWtGLo/UXPa+XaKteEvYPk2zAXu+vuDzeZnCtm6r0AJoS5hWK00zRxME2l1UH5rhCMhxwVdlrr4+v/DCoWAbtFJq7tuggs08+KrOCHzYZh58WR82WM8mXkYtFsuMjPz7VnR3X8QIcUzcACHeKLp3nC4ZtVsOwHRKZwPyCoClkEy76SnuEUqZMcXVK9pWdWflir6NZjigszJ9m+2XA2A0aHVJy9ZqoICCFc3UJ9lflbjBFgZ5MeUT3NLwluyWtqKO0wttULatyqrc/itOWgzCYIRUMPmRwgvjGasLThmMYpqiix2let6rgxboaB8yklS0UWcB5tVGVxZYO9IMcdzSuiVN1ORGN3BVbxWaszrRw0yNKk2KHYDt9ExreK5LqSGAtXBOAIXHvjaV+QBU2qTwW4JCofLhj9Gwh941Hy9pW9leeTLRtmzCQ0QWYbSIZ8iJvsH6No8ifETGJgsdAOUDLBUTqMyjBtu6gZkPTljeuld8bnTM1MAAi9EarCkmjbnRhoUDoICfO22BOgAcdYl88ki36ak0Xfc5QDB3LEKbrCbYih4jY3zcCsO9QvOvMQG2Cq5U2lcbfT7oW3ATrR0jrNL5+KFhrFEjb/VVHMKpvNldN7qvQoOTKtjvqHxo2XcM07W10JJ+acjelVPlydwob9mUjGTskiksNVQskxlv4bn2A1WO2TxyrW5fUKh3WmCSdpMH5hsjxbyLCof2hI7lV3lrK46xaHIGB+DweKJO0QHQ+BvxDatPFYxmxiAcH7yGfoM7YpZAjEltmGfvNB0YXA0z+Tytd+qFNK7zJMh1CbbUM1e+jEXUkWoyi6snnzqwCbBhogAwOsXmrAGhtCc5dAa5oI/zNIrOUVc0oAEgkq5bGNo7NdG6TbGN9JTEGjsZ986Hx8/OQEtEWwV2JMCMjAvmD53b9ODqTQ6sIVLL1oGLvA7o/qP9MAKr4Dc2lXGi5daxf/h7pNsA/+Pl86cPD58+PX899fr/8XMp/+n5Uyt9+w8=);lineShape=1;" vertex="1" parent="7Ob9awnKBekJb-dhLCCk-1">
          <mxGeometry x="708.9772131297095" y="-0.39767253341369724" width="113.84701473420864" height="492.8034757187738" as="geometry" />
        </mxCell>
        <mxCell id="7Ob9awnKBekJb-dhLCCk-33" value="" style="shape=stencil(lVfLctswDPwaXTHgmzyn6X9kJk7tqWtnHKdt/j5QVSYCJK3bmyxjBQLYBcAh3L3sH553g+eX6+X8fffr8HjdD+HL4P3htN9dDld5GsL9EO6ezpfdt8v59fQ4/X5+GC3Hpx/nn+MXfk84xxTiiPL8Nr0JxOHPi6+T/fFwmtl7phiUvffEEQAKMWsHgUrbBsjfvipAjFQZABr5ogApUvPbAPle0x5y7FGtAhKTTwpQPCUQQ6rE+kjVUwFZytlmqUTybhtQJInexvA3b6uAWijrI8UEs1Qb5WDrwADQHDWnAYEciKFFWzgBeJDWlilme6QECtfqwkPueVsHNIpNAyQNIAbHbCuXPDVAV3FRNJlSJp9hEEVHnRoFFEQhpzWdHRXAjZaI9ZFyoICO5BfsC7346wBpM3XhoQD21c6EWQyoC9Rs+T1mKQFAWgAyZJ8Aoub3WGnAvvohsDmZEEAKZySXYduQLLWFRhMIWjRqPUgdEFvDQhA3RJ0sW8e2gQDFcmlsTFhAzniolBC9m21M6YYemi1cSt3nPx5JJgAUUOl1ndGbUeFWAYgahaoOWiYK8lAqVU0N4S+DLOVGSWdJGnoDHjJT0q1y1j03B6/O6zgCgIKio6QBNUBBhExhkaaM1hPubWg2eCvoZD4u2Bdh63N1IQgsOef79z5WLNcH5TrAxuwCFBDbpDrpxdDe6e+3vnBtmNvd54a5N+KkBgrGVMwK0KfjRm6y/rpsemi9pWJS2TeOdfbYzVPWacT/PsE+zZFcsm29DAVcbZmYMghVxmkwoSLz/71Z3LaXh89rzNPheJxuQfP/7bVHXk1XpnD/Dg==);lineShape=1;" vertex="1" parent="7Ob9awnKBekJb-dhLCCk-1">
          <mxGeometry x="692.9617117941707" y="47.96691079685604" width="34.96958742008064" height="24.488158117993294" as="geometry" />
        </mxCell>
        <mxCell id="7Ob9awnKBekJb-dhLCCk-34" value="id: int" style="rounded=0;whiteSpace=wrap;html=1;fontFamily=Ubuntu;fontSource=https%3A%2F%2Ffonts.googleapis.com%2Fcss%3Ffamily%3DUbuntu;fontSize=14;fillColor=#f8cecc;strokeColor=#b85450;fillStyle=dots;" vertex="1" parent="7Ob9awnKBekJb-dhLCCk-1">
          <mxGeometry x="420" y="80" width="140" height="30" as="geometry" />
        </mxCell>
        <mxCell id="7Ob9awnKBekJb-dhLCCk-35" value="name: String" style="rounded=0;whiteSpace=wrap;html=1;fontFamily=Ubuntu;fontSource=https%3A%2F%2Ffonts.googleapis.com%2Fcss%3Ffamily%3DUbuntu;fontSize=14;fillColor=#f8cecc;strokeColor=#b85450;fillStyle=dots;" vertex="1" parent="7Ob9awnKBekJb-dhLCCk-1">
          <mxGeometry x="420" y="110" width="140" height="30" as="geometry" />
        </mxCell>
        <mxCell id="7Ob9awnKBekJb-dhLCCk-36" value="Student(int id, String name)" style="ellipse;whiteSpace=wrap;html=1;fontFamily=Ubuntu;fontSource=https%3A%2F%2Ffonts.googleapis.com%2Fcss%3Ffamily%3DUbuntu;fontSize=14;fillColor=#f8cecc;strokeColor=#b85450;fillStyle=dots;" vertex="1" parent="7Ob9awnKBekJb-dhLCCk-1">
          <mxGeometry x="430" y="150.15" width="120" height="80" as="geometry" />
        </mxCell>
        <mxCell id="7Ob9awnKBekJb-dhLCCk-37" value="" style="rounded=0;whiteSpace=wrap;html=1;fontFamily=Ubuntu;fontSource=https%3A%2F%2Ffonts.googleapis.com%2Fcss%3Ffamily%3DUbuntu;fontSize=14;movable=1;resizable=1;rotatable=1;deletable=1;editable=1;locked=0;connectable=1;" vertex="1" parent="7Ob9awnKBekJb-dhLCCk-1">
          <mxGeometry x="320" y="370" width="140" height="200" as="geometry" />
        </mxCell>
        <mxCell id="7Ob9awnKBekJb-dhLCCk-38" style="edgeStyle=orthogonalEdgeStyle;rounded=0;orthogonalLoop=1;jettySize=auto;html=1;entryX=0.4;entryY=1;entryDx=0;entryDy=0;entryPerimeter=0;dashed=1;" edge="1" parent="7Ob9awnKBekJb-dhLCCk-1" source="7Ob9awnKBekJb-dhLCCk-39" target="7Ob9awnKBekJb-dhLCCk-29">
          <mxGeometry relative="1" as="geometry" />
        </mxCell>
        <mxCell id="7Ob9awnKBekJb-dhLCCk-39" value="0xAF13" style="text;html=1;strokeColor=#6c8ebf;fillColor=#dae8fc;align=center;verticalAlign=middle;whiteSpace=wrap;rounded=0;fontFamily=Ubuntu;fontSource=https%3A%2F%2Ffonts.googleapis.com%2Fcss%3Ffamily%3DUbuntu;fontSize=14;" vertex="1" parent="7Ob9awnKBekJb-dhLCCk-1">
          <mxGeometry x="320" y="340" width="60" height="30" as="geometry" />
        </mxCell>
        <mxCell id="7Ob9awnKBekJb-dhLCCk-40" value="id: int = 1" style="rounded=0;whiteSpace=wrap;html=1;fontFamily=Ubuntu;fontSource=https%3A%2F%2Ffonts.googleapis.com%2Fcss%3Ffamily%3DUbuntu;fontSize=14;fillStyle=auto;" vertex="1" parent="7Ob9awnKBekJb-dhLCCk-1">
          <mxGeometry x="320" y="370" width="140" height="30" as="geometry" />
        </mxCell>
        <mxCell id="7Ob9awnKBekJb-dhLCCk-41" value="name: String = &quot;Kasun&quot;" style="rounded=0;whiteSpace=wrap;html=1;fontFamily=Ubuntu;fontSource=https%3A%2F%2Ffonts.googleapis.com%2Fcss%3Ffamily%3DUbuntu;fontSize=14;fillStyle=auto;" vertex="1" parent="7Ob9awnKBekJb-dhLCCk-1">
          <mxGeometry x="320" y="400" width="140" height="30" as="geometry" />
        </mxCell>
        <mxCell id="7Ob9awnKBekJb-dhLCCk-42" value="Student(int id, String name)" style="ellipse;whiteSpace=wrap;html=1;fontFamily=Ubuntu;fontSource=https%3A%2F%2Ffonts.googleapis.com%2Fcss%3Ffamily%3DUbuntu;fontSize=14;fillStyle=auto;" vertex="1" parent="7Ob9awnKBekJb-dhLCCk-1">
          <mxGeometry x="330" y="440.15" width="120" height="80" as="geometry" />
        </mxCell>
        <mxCell id="c3FGBrG1KRDEIAV1_Qne-1" value="" style="rounded=0;whiteSpace=wrap;html=1;fontFamily=Ubuntu;fontSource=https%3A%2F%2Ffonts.googleapis.com%2Fcss%3Ffamily%3DUbuntu;fontSize=14;movable=1;resizable=1;rotatable=1;deletable=1;editable=1;locked=0;connectable=1;" vertex="1" parent="7Ob9awnKBekJb-dhLCCk-1">
          <mxGeometry x="530" y="370" width="140" height="200" as="geometry" />
        </mxCell>
        <mxCell id="c3FGBrG1KRDEIAV1_Qne-3" style="edgeStyle=orthogonalEdgeStyle;rounded=0;orthogonalLoop=1;jettySize=auto;html=1;entryX=0.5;entryY=1;entryDx=0;entryDy=0;dashed=1;" edge="1" parent="7Ob9awnKBekJb-dhLCCk-1" source="c3FGBrG1KRDEIAV1_Qne-2" target="7Ob9awnKBekJb-dhLCCk-29">
          <mxGeometry relative="1" as="geometry">
            <Array as="points">
              <mxPoint x="560" y="330" />
              <mxPoint x="490" y="330" />
            </Array>
          </mxGeometry>
        </mxCell>
        <mxCell id="c3FGBrG1KRDEIAV1_Qne-2" value="0xAF14" style="text;html=1;strokeColor=#6c8ebf;fillColor=#dae8fc;align=center;verticalAlign=middle;whiteSpace=wrap;rounded=0;fontFamily=Ubuntu;fontSource=https%3A%2F%2Ffonts.googleapis.com%2Fcss%3Ffamily%3DUbuntu;fontSize=14;" vertex="1" parent="7Ob9awnKBekJb-dhLCCk-1">
          <mxGeometry x="530" y="340" width="60" height="30" as="geometry" />
        </mxCell>
        <mxCell id="c3FGBrG1KRDEIAV1_Qne-4" value="id: int = 2" style="rounded=0;whiteSpace=wrap;html=1;fontFamily=Ubuntu;fontSource=https%3A%2F%2Ffonts.googleapis.com%2Fcss%3Ffamily%3DUbuntu;fontSize=14;fillStyle=auto;" vertex="1" parent="7Ob9awnKBekJb-dhLCCk-1">
          <mxGeometry x="530" y="370" width="140" height="30" as="geometry" />
        </mxCell>
        <mxCell id="c3FGBrG1KRDEIAV1_Qne-5" value="name: String = &quot;Nuwan&quot;" style="rounded=0;whiteSpace=wrap;html=1;fontFamily=Ubuntu;fontSource=https%3A%2F%2Ffonts.googleapis.com%2Fcss%3Ffamily%3DUbuntu;fontSize=14;fillStyle=auto;" vertex="1" parent="7Ob9awnKBekJb-dhLCCk-1">
          <mxGeometry x="530" y="400" width="140" height="30" as="geometry" />
        </mxCell>
        <mxCell id="c3FGBrG1KRDEIAV1_Qne-6" value="Student(int id, String name)" style="ellipse;whiteSpace=wrap;html=1;fontFamily=Ubuntu;fontSource=https%3A%2F%2Ffonts.googleapis.com%2Fcss%3Ffamily%3DUbuntu;fontSize=14;fillStyle=auto;" vertex="1" parent="7Ob9awnKBekJb-dhLCCk-1">
          <mxGeometry x="540" y="440.15" width="120" height="80" as="geometry" />
        </mxCell>
        <mxCell id="IJX0vfeLEv4dq2_c5Y0L-0" value="" style="rounded=0;whiteSpace=wrap;html=1;fillColor=#dae8fc;strokeColor=#6c8ebf;strokeWidth=6;" vertex="1" parent="7Ob9awnKBekJb-dhLCCk-1">
          <mxGeometry x="40" y="300" width="160" height="110" as="geometry" />
        </mxCell>
        <mxCell id="IJX0vfeLEv4dq2_c5Y0L-1" value="0xAF14.Student(int, String)" style="text;html=1;strokeColor=none;fillColor=none;align=center;verticalAlign=middle;whiteSpace=wrap;rounded=0;fontFamily=Ubuntu;fontSource=https%3A%2F%2Ffonts.googleapis.com%2Fcss%3Ffamily%3DUbuntu;fontSize=16;" vertex="1" parent="7Ob9awnKBekJb-dhLCCk-1">
          <mxGeometry x="-200" y="350" width="230" height="30" as="geometry" />
        </mxCell>
        <mxCell id="IJX0vfeLEv4dq2_c5Y0L-5" style="edgeStyle=orthogonalEdgeStyle;rounded=0;orthogonalLoop=1;jettySize=auto;html=1;entryX=0;entryY=0.25;entryDx=0;entryDy=0;" edge="1" parent="7Ob9awnKBekJb-dhLCCk-1" source="IJX0vfeLEv4dq2_c5Y0L-2" target="c3FGBrG1KRDEIAV1_Qne-2">
          <mxGeometry relative="1" as="geometry">
            <Array as="points">
              <mxPoint x="365" y="310" />
              <mxPoint x="365" y="348" />
            </Array>
          </mxGeometry>
        </mxCell>
        <mxCell id="IJX0vfeLEv4dq2_c5Y0L-2" value="this = 0xAF14" style="rounded=0;whiteSpace=wrap;html=1;fontFamily=Ubuntu;fontSource=https%3A%2F%2Ffonts.googleapis.com%2Fcss%3Ffamily%3DUbuntu;fontSize=16;" vertex="1" parent="7Ob9awnKBekJb-dhLCCk-1">
          <mxGeometry x="40" y="302.5" width="160" height="35" as="geometry" />
        </mxCell>
        <mxCell id="IJX0vfeLEv4dq2_c5Y0L-3" value="int id = 2" style="rounded=0;whiteSpace=wrap;html=1;fontFamily=Ubuntu;fontSource=https%3A%2F%2Ffonts.googleapis.com%2Fcss%3Ffamily%3DUbuntu;fontSize=16;" vertex="1" parent="7Ob9awnKBekJb-dhLCCk-1">
          <mxGeometry x="40" y="337.5" width="160" height="35" as="geometry" />
        </mxCell>
        <mxCell id="IJX0vfeLEv4dq2_c5Y0L-4" value="String name = &quot;Nuwan&quot;" style="rounded=0;whiteSpace=wrap;html=1;fontFamily=Ubuntu;fontSource=https%3A%2F%2Ffonts.googleapis.com%2Fcss%3Ffamily%3DUbuntu;fontSize=16;" vertex="1" parent="7Ob9awnKBekJb-dhLCCk-1">
          <mxGeometry x="40" y="374" width="160" height="35" as="geometry" />
        </mxCell>
      </root>
    </mxGraphModel>
  </diagram>
  <diagram name="Page-5" id="ZLfOpPGVNQI0D0Uu_t7h">
    <mxGraphModel dx="1980" dy="595" grid="1" gridSize="10" guides="1" tooltips="1" connect="1" arrows="1" fold="1" page="1" pageScale="1" pageWidth="1100" pageHeight="850" math="0" shadow="0">
      <root>
        <mxCell id="KThl44kY00X_W7mBjocq-0" />
        <mxCell id="KThl44kY00X_W7mBjocq-1" parent="KThl44kY00X_W7mBjocq-0" />
        <mxCell id="KThl44kY00X_W7mBjocq-2" value="" style="rounded=0;whiteSpace=wrap;html=1;fontFamily=Ubuntu;fontSource=https%3A%2F%2Ffonts.googleapis.com%2Fcss%3Ffamily%3DUbuntu;fontSize=14;movable=0;resizable=0;rotatable=0;deletable=0;editable=0;locked=1;connectable=0;" vertex="1" parent="KThl44kY00X_W7mBjocq-1">
          <mxGeometry x="40" y="40" width="160" height="560" as="geometry" />
        </mxCell>
        <mxCell id="KThl44kY00X_W7mBjocq-3" value="" style="rounded=0;whiteSpace=wrap;html=1;fontFamily=Ubuntu;fontSource=https%3A%2F%2Ffonts.googleapis.com%2Fcss%3Ffamily%3DUbuntu;fontSize=14;movable=0;resizable=0;rotatable=0;deletable=0;editable=0;locked=1;connectable=0;" vertex="1" parent="KThl44kY00X_W7mBjocq-1">
          <mxGeometry x="200" y="40" width="560" height="280" as="geometry" />
        </mxCell>
        <mxCell id="KThl44kY00X_W7mBjocq-4" value="" style="rounded=0;whiteSpace=wrap;html=1;fontFamily=Ubuntu;fontSource=https%3A%2F%2Ffonts.googleapis.com%2Fcss%3Ffamily%3DUbuntu;fontSize=14;movable=0;resizable=0;rotatable=0;deletable=0;editable=0;locked=1;connectable=0;" vertex="1" parent="KThl44kY00X_W7mBjocq-1">
          <mxGeometry x="200" y="320" width="560" height="280" as="geometry" />
        </mxCell>
        <mxCell id="KThl44kY00X_W7mBjocq-5" value="Demo6.class" style="rounded=0;whiteSpace=wrap;html=1;fontFamily=Ubuntu;fontSource=https%3A%2F%2Ffonts.googleapis.com%2Fcss%3Ffamily%3DUbuntu;fontSize=14;movable=0;resizable=0;rotatable=0;deletable=0;editable=0;locked=1;connectable=0;" vertex="1" parent="KThl44kY00X_W7mBjocq-1">
          <mxGeometry x="780" y="500" width="100" height="100" as="geometry" />
        </mxCell>
        <mxCell id="KThl44kY00X_W7mBjocq-6" value="Student.class" style="rounded=0;whiteSpace=wrap;html=1;fontFamily=Ubuntu;fontSource=https%3A%2F%2Ffonts.googleapis.com%2Fcss%3Ffamily%3DUbuntu;fontSize=14;movable=0;resizable=0;rotatable=0;deletable=0;editable=0;locked=1;connectable=0;" vertex="1" parent="KThl44kY00X_W7mBjocq-1">
          <mxGeometry x="800" y="375" width="100" height="100" as="geometry" />
        </mxCell>
        <mxCell id="KThl44kY00X_W7mBjocq-7" value="Application Class Loader" style="shape=umlActor;verticalLabelPosition=bottom;verticalAlign=top;html=1;outlineConnect=0;fontFamily=Ubuntu;fontSource=https%3A%2F%2Ffonts.googleapis.com%2Fcss%3Ffamily%3DUbuntu;align=left;movable=0;resizable=0;rotatable=0;deletable=0;editable=0;locked=1;connectable=0;" vertex="1" parent="KThl44kY00X_W7mBjocq-1">
          <mxGeometry x="815" y="40" width="30" height="60" as="geometry" />
        </mxCell>
        <mxCell id="KThl44kY00X_W7mBjocq-8" value="STACK" style="text;html=1;strokeColor=none;fillColor=none;align=center;verticalAlign=middle;whiteSpace=wrap;rounded=0;fontFamily=Ubuntu;fontSource=https%3A%2F%2Ffonts.googleapis.com%2Fcss%3Ffamily%3DUbuntu;fontSize=26;fontColor=#CCCCCC;movable=0;resizable=0;rotatable=0;deletable=0;editable=0;locked=1;connectable=0;" vertex="1" parent="KThl44kY00X_W7mBjocq-1">
          <mxGeometry x="60" y="300" width="120" height="50" as="geometry" />
        </mxCell>
        <mxCell id="KThl44kY00X_W7mBjocq-9" value="METHOD AREA" style="text;html=1;strokeColor=none;fillColor=none;align=center;verticalAlign=middle;whiteSpace=wrap;rounded=0;fontFamily=Ubuntu;fontSource=https%3A%2F%2Ffonts.googleapis.com%2Fcss%3Ffamily%3DUbuntu;fontSize=26;fontColor=#CCCCCC;movable=0;resizable=0;rotatable=0;deletable=0;editable=0;locked=1;connectable=0;" vertex="1" parent="KThl44kY00X_W7mBjocq-1">
          <mxGeometry x="420" y="140" width="120" height="50" as="geometry" />
        </mxCell>
        <mxCell id="KThl44kY00X_W7mBjocq-10" value="HEAP" style="text;html=1;strokeColor=none;fillColor=none;align=center;verticalAlign=middle;whiteSpace=wrap;rounded=0;fontFamily=Ubuntu;fontSource=https%3A%2F%2Ffonts.googleapis.com%2Fcss%3Ffamily%3DUbuntu;fontSize=26;fontColor=#CCCCCC;movable=0;resizable=0;rotatable=0;deletable=0;editable=0;locked=1;connectable=0;" vertex="1" parent="KThl44kY00X_W7mBjocq-1">
          <mxGeometry x="420" y="425" width="120" height="50" as="geometry" />
        </mxCell>
        <mxCell id="KThl44kY00X_W7mBjocq-11" value="" style="rounded=0;whiteSpace=wrap;html=1;fontFamily=Ubuntu;fontSource=https%3A%2F%2Ffonts.googleapis.com%2Fcss%3Ffamily%3DUbuntu;fontSize=14;movable=1;resizable=1;rotatable=1;deletable=1;editable=1;locked=0;connectable=1;" vertex="1" parent="KThl44kY00X_W7mBjocq-1">
          <mxGeometry x="600" y="80" width="140" height="200" as="geometry" />
        </mxCell>
        <mxCell id="KThl44kY00X_W7mBjocq-12" value="0xAF10" style="text;html=1;strokeColor=#6c8ebf;fillColor=#dae8fc;align=center;verticalAlign=middle;whiteSpace=wrap;rounded=0;fontFamily=Ubuntu;fontSource=https%3A%2F%2Ffonts.googleapis.com%2Fcss%3Ffamily%3DUbuntu;fontSize=14;" vertex="1" parent="KThl44kY00X_W7mBjocq-1">
          <mxGeometry x="600" y="50" width="60" height="30" as="geometry" />
        </mxCell>
        <mxCell id="KThl44kY00X_W7mBjocq-13" value="Demo6 Class Object" style="text;html=1;strokeColor=#6c8ebf;fillColor=#dae8fc;align=center;verticalAlign=middle;whiteSpace=wrap;rounded=0;fontFamily=Ubuntu;fontSource=https%3A%2F%2Ffonts.googleapis.com%2Fcss%3Ffamily%3DUbuntu;fontSize=14;" vertex="1" parent="KThl44kY00X_W7mBjocq-1">
          <mxGeometry x="600" y="280" width="140" height="30" as="geometry" />
        </mxCell>
        <mxCell id="KThl44kY00X_W7mBjocq-14" value="Demo6()" style="ellipse;whiteSpace=wrap;html=1;fontFamily=Ubuntu;fontSource=https%3A%2F%2Ffonts.googleapis.com%2Fcss%3Ffamily%3DUbuntu;fontSize=14;fillColor=#f8cecc;strokeColor=#b85450;fillStyle=dots;" vertex="1" parent="KThl44kY00X_W7mBjocq-1">
          <mxGeometry x="610" y="90" width="120" height="80" as="geometry" />
        </mxCell>
        <mxCell id="KThl44kY00X_W7mBjocq-15" value="psvm()" style="ellipse;whiteSpace=wrap;html=1;fontFamily=Ubuntu;fontSource=https%3A%2F%2Ffonts.googleapis.com%2Fcss%3Ffamily%3DUbuntu;fontSize=14;" vertex="1" parent="KThl44kY00X_W7mBjocq-1">
          <mxGeometry x="610" y="180" width="120" height="80" as="geometry" />
        </mxCell>
        <mxCell id="KThl44kY00X_W7mBjocq-16" value="" style="rounded=0;whiteSpace=wrap;html=1;fillColor=#d5e8d4;strokeColor=#82b366;strokeWidth=6;" vertex="1" parent="KThl44kY00X_W7mBjocq-1">
          <mxGeometry x="40" y="410" width="160" height="190" as="geometry" />
        </mxCell>
        <mxCell id="KThl44kY00X_W7mBjocq-17" value="Demo6 (0xAF10). main()" style="text;html=1;strokeColor=none;fillColor=none;align=center;verticalAlign=middle;whiteSpace=wrap;rounded=0;fontFamily=Ubuntu;fontSource=https%3A%2F%2Ffonts.googleapis.com%2Fcss%3Ffamily%3DUbuntu;fontSize=16;" vertex="1" parent="KThl44kY00X_W7mBjocq-1">
          <mxGeometry x="-160" y="520" width="190" height="30" as="geometry" />
        </mxCell>
        <mxCell id="KThl44kY00X_W7mBjocq-18" style="edgeStyle=orthogonalEdgeStyle;rounded=0;orthogonalLoop=1;jettySize=auto;html=1;entryX=0;entryY=0.25;entryDx=0;entryDy=0;dashed=1;" edge="1" parent="KThl44kY00X_W7mBjocq-1" source="KThl44kY00X_W7mBjocq-19" target="KThl44kY00X_W7mBjocq-12">
          <mxGeometry relative="1" as="geometry">
            <Array as="points">
              <mxPoint x="210" y="428" />
              <mxPoint x="210" y="58" />
            </Array>
          </mxGeometry>
        </mxCell>
        <mxCell id="KThl44kY00X_W7mBjocq-19" value="RCP = 0xAF10" style="rounded=0;whiteSpace=wrap;html=1;fontFamily=Ubuntu;fontSource=https%3A%2F%2Ffonts.googleapis.com%2Fcss%3Ffamily%3DUbuntu;fontSize=16;" vertex="1" parent="KThl44kY00X_W7mBjocq-1">
          <mxGeometry x="40" y="410" width="160" height="35" as="geometry" />
        </mxCell>
        <mxCell id="KThl44kY00X_W7mBjocq-20" style="edgeStyle=orthogonalEdgeStyle;rounded=0;orthogonalLoop=1;jettySize=auto;html=1;dashed=1;" edge="1" parent="KThl44kY00X_W7mBjocq-1" source="KThl44kY00X_W7mBjocq-21" target="KThl44kY00X_W7mBjocq-22">
          <mxGeometry relative="1" as="geometry" />
        </mxCell>
        <mxCell id="KThl44kY00X_W7mBjocq-21" value="String[] args = 0xAF11" style="rounded=0;whiteSpace=wrap;html=1;fontFamily=Ubuntu;fontSource=https%3A%2F%2Ffonts.googleapis.com%2Fcss%3Ffamily%3DUbuntu;fontSize=16;" vertex="1" parent="KThl44kY00X_W7mBjocq-1">
          <mxGeometry x="40" y="445" width="160" height="45" as="geometry" />
        </mxCell>
        <mxCell id="-RhUh2AKbAp4amstIogZ-0" style="edgeStyle=orthogonalEdgeStyle;rounded=0;orthogonalLoop=1;jettySize=auto;html=1;entryX=0;entryY=0;entryDx=0;entryDy=0;" edge="1" parent="KThl44kY00X_W7mBjocq-1" source="KThl44kY00X_W7mBjocq-26" target="KThl44kY00X_W7mBjocq-46">
          <mxGeometry relative="1" as="geometry">
            <Array as="points">
              <mxPoint x="280" y="535" />
              <mxPoint x="280" y="330" />
              <mxPoint x="530" y="330" />
            </Array>
          </mxGeometry>
        </mxCell>
        <mxCell id="KThl44kY00X_W7mBjocq-22" value="0xAF11" style="text;html=1;strokeColor=#6c8ebf;fillColor=#dae8fc;align=center;verticalAlign=middle;whiteSpace=wrap;rounded=0;fontFamily=Ubuntu;fontSource=https%3A%2F%2Ffonts.googleapis.com%2Fcss%3Ffamily%3DUbuntu;fontSize=14;" vertex="1" parent="KThl44kY00X_W7mBjocq-1">
          <mxGeometry x="240" y="560" width="60" height="30" as="geometry" />
        </mxCell>
        <mxCell id="KThl44kY00X_W7mBjocq-23" value="" style="rounded=0;whiteSpace=wrap;html=1;" vertex="1" parent="KThl44kY00X_W7mBjocq-1">
          <mxGeometry x="240" y="590" width="10" height="20" as="geometry" />
        </mxCell>
        <mxCell id="KThl44kY00X_W7mBjocq-24" style="edgeStyle=orthogonalEdgeStyle;rounded=0;orthogonalLoop=1;jettySize=auto;html=1;entryX=0;entryY=0.5;entryDx=0;entryDy=0;" edge="1" parent="KThl44kY00X_W7mBjocq-1" source="KThl44kY00X_W7mBjocq-25" target="KThl44kY00X_W7mBjocq-40">
          <mxGeometry relative="1" as="geometry" />
        </mxCell>
        <mxCell id="KThl44kY00X_W7mBjocq-25" value="Student s1 = 0xAF13" style="rounded=0;whiteSpace=wrap;html=1;fontFamily=Ubuntu;fontSource=https%3A%2F%2Ffonts.googleapis.com%2Fcss%3Ffamily%3DUbuntu;fontSize=16;" vertex="1" parent="KThl44kY00X_W7mBjocq-1">
          <mxGeometry x="40" y="490" width="160" height="35" as="geometry" />
        </mxCell>
        <mxCell id="KThl44kY00X_W7mBjocq-26" value="Student s2 = 0xAF14" style="rounded=0;whiteSpace=wrap;html=1;fontFamily=Ubuntu;fontSource=https%3A%2F%2Ffonts.googleapis.com%2Fcss%3Ffamily%3DUbuntu;fontSize=16;" vertex="1" parent="KThl44kY00X_W7mBjocq-1">
          <mxGeometry x="40" y="525" width="160" height="35" as="geometry" />
        </mxCell>
        <mxCell id="-RhUh2AKbAp4amstIogZ-2" style="edgeStyle=orthogonalEdgeStyle;rounded=0;orthogonalLoop=1;jettySize=auto;html=1;entryX=0.021;entryY=0.805;entryDx=0;entryDy=0;entryPerimeter=0;" edge="1" parent="KThl44kY00X_W7mBjocq-1" source="KThl44kY00X_W7mBjocq-27" target="KThl44kY00X_W7mBjocq-38">
          <mxGeometry relative="1" as="geometry">
            <Array as="points">
              <mxPoint x="310" y="578" />
              <mxPoint x="310" y="531" />
            </Array>
          </mxGeometry>
        </mxCell>
        <mxCell id="KThl44kY00X_W7mBjocq-27" value="Student s3 = 0xAF13" style="rounded=0;whiteSpace=wrap;html=1;fontFamily=Ubuntu;fontSource=https%3A%2F%2Ffonts.googleapis.com%2Fcss%3Ffamily%3DUbuntu;fontSize=16;" vertex="1" parent="KThl44kY00X_W7mBjocq-1">
          <mxGeometry x="40" y="560" width="160" height="35" as="geometry" />
        </mxCell>
        <mxCell id="KThl44kY00X_W7mBjocq-28" value="" style="rounded=0;whiteSpace=wrap;html=1;fontFamily=Ubuntu;fontSource=https%3A%2F%2Ffonts.googleapis.com%2Fcss%3Ffamily%3DUbuntu;fontSize=14;movable=1;resizable=1;rotatable=1;deletable=1;editable=1;locked=0;connectable=1;" vertex="1" parent="KThl44kY00X_W7mBjocq-1">
          <mxGeometry x="420" y="80" width="140" height="200" as="geometry" />
        </mxCell>
        <mxCell id="KThl44kY00X_W7mBjocq-29" value="0xAF12" style="text;html=1;strokeColor=#6c8ebf;fillColor=#dae8fc;align=center;verticalAlign=middle;whiteSpace=wrap;rounded=0;fontFamily=Ubuntu;fontSource=https%3A%2F%2Ffonts.googleapis.com%2Fcss%3Ffamily%3DUbuntu;fontSize=14;" vertex="1" parent="KThl44kY00X_W7mBjocq-1">
          <mxGeometry x="420" y="50" width="60" height="30" as="geometry" />
        </mxCell>
        <mxCell id="KThl44kY00X_W7mBjocq-30" value="Student Class Object" style="text;html=1;strokeColor=#6c8ebf;fillColor=#dae8fc;align=center;verticalAlign=middle;whiteSpace=wrap;rounded=0;fontFamily=Ubuntu;fontSource=https%3A%2F%2Ffonts.googleapis.com%2Fcss%3Ffamily%3DUbuntu;fontSize=14;" vertex="1" parent="KThl44kY00X_W7mBjocq-1">
          <mxGeometry x="420" y="280" width="140" height="30" as="geometry" />
        </mxCell>
        <mxCell id="KThl44kY00X_W7mBjocq-31" value="" style="shape=stencil(lVvZchw3DPwavbIIguez4/yHqyzHqiiSS7Zz/H3AKJwdNmd6pCo/yLvADA8c3QD2Tj98//rp2/1d8N9/vDz/fv/Xw+cfX+/0l7sQHp6+3r88/LC/7vTjnX748vxy/9vL88+nz6////apS/a//nj+sz/h71e91pyp9H/+n+2TWv775NdXhceHp71CdSHPCtXVRhSKS4uCZwrZ1TQrFOeFKojOCslltofkNM4K6hpbUlz2EPiS1JUyKdTmSiUKwTVQKC5wheBnhW2RxwriIiiIK2wP3uVZoVTX/LlC3+J8SiU7r0TBnjcbX1G6aVMQmRVskeTi7BB1No1s9ktMo2aXZtPIifpDTXjTWV1ke0jjTDYFcT4Qheh0PqVUx66OFXScyaZg/sAVwIGSmSMxjRpcmU0jeSeRKsT54qLdDH/D/4awKUSX+RvCvOkYrpaU5mNVi3xcoc2b1uIq8Tg7Vp1NQzONfKaAb4jcluzr2VpVucdF10BBuAOl5Q3eRWatCX06tBGpzjxO55sOlh8SVajzKYXMrdUi6Wx8wZyW3XQZ7rIp2EGzU7IVzzcdlBtfdQn2ICOOvDFUBu+ULak5nd8gjYeZ5vJ8SmLHwO5hAwqbQh7vPEsofnZRMXNkOc4j1hALbSzH2ZmAQqDWagqQFEUGIDp9w+wP4qm1moLM5l25sdqpzvLFFX7Pcd5ydpmnUIgxaaT5M3lwnshzSRlmuQUMV7g3RwV5z9azYLcw0uNZxBOwUr4ei/IJ5OnzZXEbigyr2cN8/t5V8nzDXDGAPAOSBrliw+cz+bi4jBO2Hlm8fiCmQ/nchnvc7kuI/RjcahnkWZLNAbOBDmxyKJ+WMBfHB8fyGSNEcomcZzIEO+/XECXx37TEuELPMxYEqHUs8Fg+jUS0URd6/lGH+d7kC5MXhLMWEIVkMkNZEBBNIZEdGMqKiwKjd7pAkK5AbMhQFsQsU4jkEnSDx/sswN5g5As4rUskCtnX7T1Zw75OCvKByZeFSFEr6kliPqFMAZE5VZitLlGr7k4+n0+k2KMHHfT6SqzUgqBgVmJIXJYsGcYFHssbVAKTo1RZlqgiFOhLwjKNUFBtwEqWrMSeH0b9443yB1lAmLxHlmxZlaEm5JdCg3QdIWp3+iyHLQSC1gQKRsRAmWjGkkOgtaWEzFgpvooIDyOlARFZAM9einFtI2cn4hB1ynD7E3HB1CUkaIYBdG4x05NrCmuIbfTpiAs5EJMlqXCblGEkOyrCgIwgDpZIgadgccHkEzEcwYhs8qz8J4jbTJ6VR/wIwHtyR56/VBcv5aFMcLkeWcgmA4ZbAt+fJzl/P2jK/r7o+iGKmDxLQQtPMO7L6uwecafJM+Dm0V06t6b7zRXlE3FHv0AkpUB4ox379VB5qPf18yH2sJS/+/lTf4mLv7DgdvT8SP0d188hz3o+caSxN55/vLCfvMQT7o9oP5EWylf7jJSIr/Yfqf0c+RfLXUf+y3jL++UxvyiF5H6xN6G4YaM0+8oVsTd/QIou7HOWb9TdZaWl3JrrbP2FJqOAJDnTamnA3JsGvTjBJWA6iZb0dCx1V3Ega49YcAg0rqVR7tthWSKesYshlOoWRJtCS7YVg5ofbcoT2A61SM67Oy0PIB8ZJBFEhJ6avCwX6zlLsQiv+HyWIhLGQN4bMdaXsTZX2PoL1sKEr6cNHnOTr8yr/CADO5bLWL1gTlG6nv71vJ5IqyTdVZDcUAifMScmXiUpWDXItLZu5r/U4il78si2KrVPNXsOIM9qtaq43zZIwFldKy21PMbP7PhgkGIUw08rcx7l2X6NwGEtktln9IMx3eRZlSQGjJ2NBvIY0Z4rTYm9Zw0TERRipwWTZAqR0kEiYvacMmKMSKtOqa29GVYnyWEgrl3VjKwnL7MQgRL8vPiX0PhZBOs8F72TiLDBU0jYeycYz2kvpCJn97x35bGX5nlLVsb2duvh8wMB80tiZbOI9+tpP7Ym9EehkLwW9PeLXt0y3qMUYteGmDzyrnsbjOPmX4Gspzd7sZfDim0mXxDVsnzRBDlOpfGwrTUcbkBdAQCBDBp2qgAsh0MCU8CyiVJM0/zi84mPA/pBJDaFrWV8emvwhkKZcp9LgFO6GFlZytPd0XiTHhyzQynepQd+ZK6gbNaoYpPMfIHOuFS8ODNu2rheWhy9icS9X+ANF3NrGUsQPd/zYT3If8o7gxbAgDQbBGtsScnJbHyqfH4w4uiQgTA6YLV0ajTzNyj6g8EwxhDrgsINh9E5TsXSbx+lYzMTinG+D+vxN4BpGLRicckUIDN3bMVHGiHMpEDnJvooHcxApss5TlgSb2f0SVEoYnD40mdRga5cjMcWvOmcKAFfg0CulKH1uDTfdPF8Mq6hxxXeeW0eN10SretaBoKBIINldK45oE8bzmKdkz6bPe+hj+SyMoiO0LspFNq6anFp3zfaL+8T7MDUhIb7gxn5i1G6jPVCeyczvlbwplvme6g419x/KsDAydKUvz3iWGGZpWuNTyg2HI/tCmzTy5xG4ylL/FJHbryw2l/RUIH+uqHhBJt9wqql/ZiWN7B6af86oAIjkn0BqwJfEs5TeM6t+iniSM6lBlYvGh9HbaPBt1dggePdP665VrA/br/l+fLw+Pj6U6D99/jbH/vo9XdD+vFf);lineShape=1;" vertex="1" parent="KThl44kY00X_W7mBjocq-1">
          <mxGeometry x="503.74601610368563" y="13.836656669174772" width="329.7311593349473" height="352.63390299437856" as="geometry" />
        </mxCell>
        <mxCell id="KThl44kY00X_W7mBjocq-32" value="" style="shape=stencil(nVfLbttADPwaXQnue3lO0/8IEKc26tqB477+vnQFKSYlTYreZGlHFDkzJD2kh7f90+tuiPx2vZy/7n4enq/7IX0aYjyc9rvL4apXQ3oc0sPL+bL7cjl/Pz2Pv1+fbidvV9/OP25v+DXiYqRUbqjIv8c7IVCIf+98HgHHw8kCSjaAKFQRIFOxEUqkJgDQKVQDqJ1y2gbk5CPUQjVvA0qlZiOURqlvA5p+gBhALtQBoEcSGyFniiDp3qjKAlC2ARIpdP9JDSQthaRZQKcKyir62FUpUmUAEB9ByxrRJ4nnoUbiCj+JHdOVCgIU4mgAjSk2AAjEbAFYrb1SssS1hKURqHYPyKCsTbVpy9oC5QAAiSR4AwXAtL7PMV1xDlrE7jwtH0UoThqZEiBOc2guAhMD4rRKwQKyuhz0JeUhW2mo4ypwnDIdFgAG0hCeDHlnUQZllUzdRWhUkEWbZ7qEqS1sOs7KuxSYdGD2hqhMGXu0WX1rN0bakLro9zJxudX6HHPq0YAaU5zmxz8CWqFo69qZBFBdA3UbQRu6oJm1kKu2qgbKqlPRMXdHzTp1ecpxDpEmataToGTlqhZh0L6jbwJKdAI5s6+RDm6kJPZjPTG0z0KpusoUQNo8CeZ8p4TW60nBHq8UEWG+p6ZpJVgXxLSxzGsVVqjPVXsNGmvT4H4/juZs0K1wcR5LTZI7jzaF0LzUZv+snxc/ZBPeOXmxiUBqNbzYntXhSP6frfkjgF68L+kvh+Nx3PHvn/ulXm+NfwjS4x8=);lineShape=1;" vertex="1" parent="KThl44kY00X_W7mBjocq-1">
          <mxGeometry x="497.82649010510113" y="50.83700249141373" width="19.44544234805744" height="19.046572967595694" as="geometry" />
        </mxCell>
        <mxCell id="KThl44kY00X_W7mBjocq-33" value="" style="shape=stencil(nVvbch0nEPwavVIwAww8O85/uMpyrIpjuWTn9vcZorASzW4fO2/yMb0LzEzPde/0zdeP777c30n8+u3p8df7Px/ef/t4pz/diTx8/nj/9PDN/7rTt3f65sPj0/0vT4+/f37//O8v78bK8ddvj3+MJ/z1jKs5xDZQEv9+/qX30OO/v/z8DPj08Pk1IIYCgBZ6vQaUGrquAAvGADmUsgJqsE4AEqKsgBIqOUPuoeQVkIMkArCgAJBQjQBKKLYCYugMkENe39A635KGtl5rs5CFAiyuAN8kuVYHdAD4I5SeQeAMaW7yCvCfIkyAufKxM7hcV0mbhd4IoIa6aqvVkNgb/Hmr8lkOygA9KLxBQmHq7Yqw3pJFanGu3rUvgOrvJLrkBlTXN1Sb77wyUVt1qdZp5eeAtm2pBOWsUVddGsRDtlQl5LQChJKAPy/BGVIoRPl8xwa3FIMQwfklpvUMfg2dvaEFWXWpGOUll2taD+2SYcrnAFvlUEqI5JZc1XS9peJWTmjGAQZn4HKwFCIAEmUNB+AtRcqtDsgrwG3wBsDWa81t0sI5wB3Kyt5OC0YE5wBQbyceI4IzDQpnKByQkWacPOmhy3ZopTbtTCqramQnMralhh4ou2SIarQY8kr32X8hZ2iCFqc9ZHIGd1B1PbS2UIh6txwavMEoe7fNsau7mEIBtgpOS2hsS+7j1lvSTH2cA0QQkNiWMoY/qpS9h9+HN8jU3yvBtZWXNFGX5YAIgEijmXao2gRInxHUFUAA0CaPXL5hlbTY1N/LM6w2LZXbg4a4aqsU6rJccHnVJclcW+v0aAeAk0BrGMKJ0CDRw1qBM6Rpg+eA/ZYiNaCuSGSpUzL24D+tgkttuvpzQMVYI/EMxROYtN5SqqGxMxjqUirUph1QBAGJqMZ4w0pkyaNxYnEnZ1BqcSMJgzPI5MIrADj2lGbYeCW4sppoijR/6Bt7d5pkuSo1yCxpMuC6CsGPmweT2kFyR2jPGaNvYfTk/vP1huvdlXDPkCHao0o0aBuCjGkZVw4digdK7cZDjAiOhzoqj5IgvBUaP9vhM17Ws/N6RB9XekyUKOpORdPqrrKejM9PLDW0oOvzPTNkhY+MTOf2whLDiMltpLG8R72QbsdbBQCNuJ7VMCJWGPh6NQyzIw2lNKNzStPjnq93T6SwnsVFbq590x9yP67uAv571pVO17ujq6u8lOqzeyHw3jzJdsbHjJavjzMbfeGryHKQrZZCk9OKbNLo8iP/eSFzKtxZWXpZ3ohsFYuQfngWzHkEDb4rUd/i6yuuN8KF+/N5CK6YJPt6luj7eSF+UJqb6Qw8X8UbjJt1o8JMbcVVs+P6RnRTtugk05qXbMFJplybsJDoARlTt0P6r59PfPVOPZnKK57sn3FhRNc75EX3A7lJOsryF+vTJl8WTkbM33y90v337bzCuPDk+YnIdyv53Fxft/th+9GT57Pz7vbO73PnKy4vnXWR79QHRdd+Q98Euz439FkwVL1hL2lGOt9tj/v+mb1HLNuM9US+ceNzzlcRCx43+NDXb/tnifn/WA/7V5q7xC19FNrFiFhdHP7rh+4z0QJpxLqcr490/8gncVrchf5gQ4+maoIltka1ISPbGk3sCraQePmh4V0WGvaPyGXVzUyvPmWsnygtTSdDbhD6fNnq92787O7L5qtp2jVEiWkF278qVnMi7dJ42iKY1iWeFkH19DDmq7Qr4/PpesM039cTUyxb6ZTv39NSw/0Ia3DaZOJX98kacQmbJ5FWQWtGLo/UXPa+XaKteEvYPk2zAXu+vuDzeZnCtm6r0AJoS5hWK00zRxME2l1UH5rhCMhxwVdlrr4+v/DCoWAbtFJq7tuggs08+KrOCHzYZh58WR82WM8mXkYtFsuMjPz7VnR3X8QIcUzcACHeKLp3nC4ZtVsOwHRKZwPyCoClkEy76SnuEUqZMcXVK9pWdWflir6NZjigszJ9m+2XA2A0aHVJy9ZqoICCFc3UJ9lflbjBFgZ5MeUT3NLwluyWtqKO0wttULatyqrc/itOWgzCYIRUMPmRwgvjGasLThmMYpqiix2let6rgxboaB8yklS0UWcB5tVGVxZYO9IMcdzSuiVN1ORGN3BVbxWaszrRw0yNKk2KHYDt9ExreK5LqSGAtXBOAIXHvjaV+QBU2qTwW4JCofLhj9Gwh941Hy9pW9leeTLRtmzCQ0QWYbSIZ8iJvsH6No8ifETGJgsdAOUDLBUTqMyjBtu6gZkPTljeuld8bnTM1MAAi9EarCkmjbnRhoUDoICfO22BOgAcdYl88ki36ak0Xfc5QDB3LEKbrCbYih4jY3zcCsO9QvOvMQG2Cq5U2lcbfT7oW3ATrR0jrNL5+KFhrFEjb/VVHMKpvNldN7qvQoOTKtjvqHxo2XcM07W10JJ+acjelVPlydwob9mUjGTskiksNVQskxlv4bn2A1WO2TxyrW5fUKh3WmCSdpMH5hsjxbyLCof2hI7lV3lrK46xaHIGB+DweKJO0QHQ+BvxDatPFYxmxiAcH7yGfoM7YpZAjEltmGfvNB0YXA0z+Tytd+qFNK7zJMh1CbbUM1e+jEXUkWoyi6snnzqwCbBhogAwOsXmrAGhtCc5dAa5oI/zNIrOUVc0oAEgkq5bGNo7NdG6TbGN9JTEGjsZ986Hx8/OQEtEWwV2JMCMjAvmD53b9ODqTQ6sIVLL1oGLvA7o/qP9MAKr4Dc2lXGi5daxf/h7pNsA/+Pl86cPD58+PX899fr/8XMp/+n5Uyt9+w8=);lineShape=1;" vertex="1" parent="KThl44kY00X_W7mBjocq-1">
          <mxGeometry x="708.9772131297095" y="-0.39767253341369724" width="113.84701473420864" height="492.8034757187738" as="geometry" />
        </mxCell>
        <mxCell id="KThl44kY00X_W7mBjocq-34" value="" style="shape=stencil(lVfLctswDPwaXTHgmzyn6X9kJk7tqWtnHKdt/j5QVSYCJK3bmyxjBQLYBcAh3L3sH553g+eX6+X8fffr8HjdD+HL4P3htN9dDld5GsL9EO6ezpfdt8v59fQ4/X5+GC3Hpx/nn+MXfk84xxTiiPL8Nr0JxOHPi6+T/fFwmtl7phiUvffEEQAKMWsHgUrbBsjfvipAjFQZABr5ogApUvPbAPle0x5y7FGtAhKTTwpQPCUQQ6rE+kjVUwFZytlmqUTybhtQJInexvA3b6uAWijrI8UEs1Qb5WDrwADQHDWnAYEciKFFWzgBeJDWlilme6QECtfqwkPueVsHNIpNAyQNIAbHbCuXPDVAV3FRNJlSJp9hEEVHnRoFFEQhpzWdHRXAjZaI9ZFyoICO5BfsC7346wBpM3XhoQD21c6EWQyoC9Rs+T1mKQFAWgAyZJ8Aoub3WGnAvvohsDmZEEAKZySXYduQLLWFRhMIWjRqPUgdEFvDQhA3RJ0sW8e2gQDFcmlsTFhAzniolBC9m21M6YYemi1cSt3nPx5JJgAUUOl1ndGbUeFWAYgahaoOWiYK8lAqVU0N4S+DLOVGSWdJGnoDHjJT0q1y1j03B6/O6zgCgIKio6QBNUBBhExhkaaM1hPubWg2eCvoZD4u2Bdh63N1IQgsOef79z5WLNcH5TrAxuwCFBDbpDrpxdDe6e+3vnBtmNvd54a5N+KkBgrGVMwK0KfjRm6y/rpsemi9pWJS2TeOdfbYzVPWacT/PsE+zZFcsm29DAVcbZmYMghVxmkwoSLz/71Z3LaXh89rzNPheJxuQfP/7bVHXk1XpnD/Dg==);lineShape=1;" vertex="1" parent="KThl44kY00X_W7mBjocq-1">
          <mxGeometry x="692.9617117941707" y="47.96691079685604" width="34.96958742008064" height="24.488158117993294" as="geometry" />
        </mxCell>
        <mxCell id="KThl44kY00X_W7mBjocq-35" value="id: int" style="rounded=0;whiteSpace=wrap;html=1;fontFamily=Ubuntu;fontSource=https%3A%2F%2Ffonts.googleapis.com%2Fcss%3Ffamily%3DUbuntu;fontSize=14;fillColor=#f8cecc;strokeColor=#b85450;fillStyle=dots;" vertex="1" parent="KThl44kY00X_W7mBjocq-1">
          <mxGeometry x="420" y="80" width="140" height="30" as="geometry" />
        </mxCell>
        <mxCell id="KThl44kY00X_W7mBjocq-36" value="name: String" style="rounded=0;whiteSpace=wrap;html=1;fontFamily=Ubuntu;fontSource=https%3A%2F%2Ffonts.googleapis.com%2Fcss%3Ffamily%3DUbuntu;fontSize=14;fillColor=#f8cecc;strokeColor=#b85450;fillStyle=dots;" vertex="1" parent="KThl44kY00X_W7mBjocq-1">
          <mxGeometry x="420" y="110" width="140" height="30" as="geometry" />
        </mxCell>
        <mxCell id="KThl44kY00X_W7mBjocq-37" value="Student(int id, String name)" style="ellipse;whiteSpace=wrap;html=1;fontFamily=Ubuntu;fontSource=https%3A%2F%2Ffonts.googleapis.com%2Fcss%3Ffamily%3DUbuntu;fontSize=14;fillColor=#f8cecc;strokeColor=#b85450;fillStyle=dots;" vertex="1" parent="KThl44kY00X_W7mBjocq-1">
          <mxGeometry x="430" y="150.15" width="120" height="80" as="geometry" />
        </mxCell>
        <mxCell id="KThl44kY00X_W7mBjocq-38" value="" style="rounded=0;whiteSpace=wrap;html=1;fontFamily=Ubuntu;fontSource=https%3A%2F%2Ffonts.googleapis.com%2Fcss%3Ffamily%3DUbuntu;fontSize=14;movable=1;resizable=1;rotatable=1;deletable=1;editable=1;locked=0;connectable=1;" vertex="1" parent="KThl44kY00X_W7mBjocq-1">
          <mxGeometry x="320" y="370" width="140" height="200" as="geometry" />
        </mxCell>
        <mxCell id="KThl44kY00X_W7mBjocq-39" style="edgeStyle=orthogonalEdgeStyle;rounded=0;orthogonalLoop=1;jettySize=auto;html=1;entryX=0.4;entryY=1;entryDx=0;entryDy=0;entryPerimeter=0;dashed=1;" edge="1" parent="KThl44kY00X_W7mBjocq-1" source="KThl44kY00X_W7mBjocq-40" target="KThl44kY00X_W7mBjocq-30">
          <mxGeometry relative="1" as="geometry" />
        </mxCell>
        <mxCell id="KThl44kY00X_W7mBjocq-40" value="0xAF13" style="text;html=1;strokeColor=#6c8ebf;fillColor=#dae8fc;align=center;verticalAlign=middle;whiteSpace=wrap;rounded=0;fontFamily=Ubuntu;fontSource=https%3A%2F%2Ffonts.googleapis.com%2Fcss%3Ffamily%3DUbuntu;fontSize=14;" vertex="1" parent="KThl44kY00X_W7mBjocq-1">
          <mxGeometry x="320" y="340" width="60" height="30" as="geometry" />
        </mxCell>
        <mxCell id="KThl44kY00X_W7mBjocq-41" value="id: int = 2" style="rounded=0;whiteSpace=wrap;html=1;fontFamily=Ubuntu;fontSource=https%3A%2F%2Ffonts.googleapis.com%2Fcss%3Ffamily%3DUbuntu;fontSize=14;fillStyle=auto;" vertex="1" parent="KThl44kY00X_W7mBjocq-1">
          <mxGeometry x="320" y="370" width="140" height="30" as="geometry" />
        </mxCell>
        <mxCell id="KThl44kY00X_W7mBjocq-42" value="name: String = &quot;Kasun&quot;" style="rounded=0;whiteSpace=wrap;html=1;fontFamily=Ubuntu;fontSource=https%3A%2F%2Ffonts.googleapis.com%2Fcss%3Ffamily%3DUbuntu;fontSize=14;fillStyle=auto;" vertex="1" parent="KThl44kY00X_W7mBjocq-1">
          <mxGeometry x="320" y="400" width="140" height="30" as="geometry" />
        </mxCell>
        <mxCell id="KThl44kY00X_W7mBjocq-43" value="Student(int id, String name)" style="ellipse;whiteSpace=wrap;html=1;fontFamily=Ubuntu;fontSource=https%3A%2F%2Ffonts.googleapis.com%2Fcss%3Ffamily%3DUbuntu;fontSize=14;fillStyle=auto;" vertex="1" parent="KThl44kY00X_W7mBjocq-1">
          <mxGeometry x="330" y="440.15" width="120" height="80" as="geometry" />
        </mxCell>
        <mxCell id="KThl44kY00X_W7mBjocq-44" value="" style="rounded=0;whiteSpace=wrap;html=1;fontFamily=Ubuntu;fontSource=https%3A%2F%2Ffonts.googleapis.com%2Fcss%3Ffamily%3DUbuntu;fontSize=14;movable=1;resizable=1;rotatable=1;deletable=1;editable=1;locked=0;connectable=1;" vertex="1" parent="KThl44kY00X_W7mBjocq-1">
          <mxGeometry x="530" y="370" width="140" height="200" as="geometry" />
        </mxCell>
        <mxCell id="KThl44kY00X_W7mBjocq-45" style="edgeStyle=orthogonalEdgeStyle;rounded=0;orthogonalLoop=1;jettySize=auto;html=1;entryX=0.5;entryY=1;entryDx=0;entryDy=0;dashed=1;" edge="1" parent="KThl44kY00X_W7mBjocq-1" source="KThl44kY00X_W7mBjocq-46" target="KThl44kY00X_W7mBjocq-30">
          <mxGeometry relative="1" as="geometry">
            <Array as="points">
              <mxPoint x="560" y="330" />
              <mxPoint x="490" y="330" />
            </Array>
          </mxGeometry>
        </mxCell>
        <mxCell id="KThl44kY00X_W7mBjocq-46" value="0xAF14" style="text;html=1;strokeColor=#6c8ebf;fillColor=#dae8fc;align=center;verticalAlign=middle;whiteSpace=wrap;rounded=0;fontFamily=Ubuntu;fontSource=https%3A%2F%2Ffonts.googleapis.com%2Fcss%3Ffamily%3DUbuntu;fontSize=14;" vertex="1" parent="KThl44kY00X_W7mBjocq-1">
          <mxGeometry x="530" y="340" width="60" height="30" as="geometry" />
        </mxCell>
        <mxCell id="KThl44kY00X_W7mBjocq-47" value="id: int = 2" style="rounded=0;whiteSpace=wrap;html=1;fontFamily=Ubuntu;fontSource=https%3A%2F%2Ffonts.googleapis.com%2Fcss%3Ffamily%3DUbuntu;fontSize=14;fillStyle=auto;" vertex="1" parent="KThl44kY00X_W7mBjocq-1">
          <mxGeometry x="530" y="370" width="140" height="30" as="geometry" />
        </mxCell>
        <mxCell id="KThl44kY00X_W7mBjocq-48" value="name: String = &quot;Kasun&quot;" style="rounded=0;whiteSpace=wrap;html=1;fontFamily=Ubuntu;fontSource=https%3A%2F%2Ffonts.googleapis.com%2Fcss%3Ffamily%3DUbuntu;fontSize=14;fillStyle=auto;" vertex="1" parent="KThl44kY00X_W7mBjocq-1">
          <mxGeometry x="530" y="400" width="140" height="30" as="geometry" />
        </mxCell>
        <mxCell id="KThl44kY00X_W7mBjocq-49" value="Student(int id, String name)" style="ellipse;whiteSpace=wrap;html=1;fontFamily=Ubuntu;fontSource=https%3A%2F%2Ffonts.googleapis.com%2Fcss%3Ffamily%3DUbuntu;fontSize=14;fillStyle=auto;" vertex="1" parent="KThl44kY00X_W7mBjocq-1">
          <mxGeometry x="540" y="440.15" width="120" height="80" as="geometry" />
        </mxCell>
      </root>
    </mxGraphModel>
  </diagram>
</mxfile>
